<svg xmlns="http://www.w3.org/2000/svg" xmlns:xlink="http://www.w3.org/1999/xlink" width="600" height="400" viewBox="0 0 2400 1600">
<defs>
  <clipPath id="clip050">
    <rect x="0" y="0" width="2400" height="1600"></rect>
  </clipPath>
</defs>
<path clip-path="url(#clip050)" d="M0 1600 L2400 1600 L2400 0 L0 0  Z" fill="#ffffff" fill-rule="evenodd" fill-opacity="1"></path>
<defs>
  <clipPath id="clip051">
    <rect x="480" y="0" width="1681" height="1600"></rect>
  </clipPath>
</defs>
<path clip-path="url(#clip050)" d="M244.451 1486.45 L2352.76 1486.45 L2352.76 47.2441 L244.451 47.2441  Z" fill="#ffffff" fill-rule="evenodd" fill-opacity="1"></path>
<defs>
  <clipPath id="clip052">
    <rect x="244" y="47" width="2109" height="1440"></rect>
  </clipPath>
</defs>
<polyline clip-path="url(#clip052)" style="stroke:#000000; stroke-linecap:round; stroke-linejoin:round; stroke-width:2; stroke-opacity:0.1; fill:none" points="665.75,1486.45 665.75,47.2441 "></polyline>
<polyline clip-path="url(#clip052)" style="stroke:#000000; stroke-linecap:round; stroke-linejoin:round; stroke-width:2; stroke-opacity:0.1; fill:none" points="1931.46,1486.45 1931.46,47.2441 "></polyline>
<polyline clip-path="url(#clip050)" style="stroke:#000000; stroke-linecap:round; stroke-linejoin:round; stroke-width:4; stroke-opacity:1; fill:none" points="244.451,1486.45 2352.76,1486.45 "></polyline>
<polyline clip-path="url(#clip050)" style="stroke:#000000; stroke-linecap:round; stroke-linejoin:round; stroke-width:4; stroke-opacity:1; fill:none" points="665.75,1486.45 665.75,1467.55 "></polyline>
<polyline clip-path="url(#clip050)" style="stroke:#000000; stroke-linecap:round; stroke-linejoin:round; stroke-width:4; stroke-opacity:1; fill:none" points="1931.46,1486.45 1931.46,1467.55 "></polyline>
<path clip-path="url(#clip050)" d="M595.033 1523.92 L595.033 1527.9 Q593.228 1526.9 591.399 1526.42 Q589.593 1525.91 587.741 1525.91 Q583.598 1525.91 581.306 1528.55 Q579.015 1531.16 579.015 1535.91 Q579.015 1540.65 581.306 1543.29 Q583.598 1545.91 587.741 1545.91 Q589.593 1545.91 591.399 1545.42 Q593.228 1544.91 595.033 1543.92 L595.033 1547.85 Q593.251 1548.69 591.329 1549.1 Q589.431 1549.52 587.278 1549.52 Q581.422 1549.52 577.973 1545.84 Q574.524 1542.16 574.524 1535.91 Q574.524 1529.57 577.996 1525.93 Q581.491 1522.3 587.556 1522.3 Q589.524 1522.3 591.399 1522.71 Q593.274 1523.11 595.033 1523.92 Z" fill="#000000" fill-rule="nonzero" fill-opacity="1"></path><path clip-path="url(#clip050)" d="M612.487 1525.91 Q609.061 1525.91 607.07 1528.59 Q605.079 1531.26 605.079 1535.91 Q605.079 1540.56 607.047 1543.25 Q609.038 1545.91 612.487 1545.91 Q615.889 1545.91 617.88 1543.22 Q619.871 1540.54 619.871 1535.91 Q619.871 1531.3 617.88 1528.62 Q615.889 1525.91 612.487 1525.91 M612.487 1522.3 Q618.042 1522.3 621.213 1525.91 Q624.385 1529.52 624.385 1535.91 Q624.385 1542.27 621.213 1545.91 Q618.042 1549.52 612.487 1549.52 Q606.908 1549.52 603.737 1545.91 Q600.589 1542.27 600.589 1535.91 Q600.589 1529.52 603.737 1525.91 Q606.908 1522.3 612.487 1522.3 Z" fill="#000000" fill-rule="nonzero" fill-opacity="1"></path><path clip-path="url(#clip050)" d="M647.973 1523.69 L647.973 1527.71 Q646.167 1526.79 644.223 1526.32 Q642.278 1525.86 640.195 1525.86 Q637.024 1525.86 635.426 1526.83 Q633.852 1527.81 633.852 1529.75 Q633.852 1531.23 634.987 1532.09 Q636.121 1532.92 639.547 1533.69 L641.005 1534.01 Q645.542 1534.98 647.44 1536.76 Q649.361 1538.52 649.361 1541.7 Q649.361 1545.31 646.491 1547.41 Q643.644 1549.52 638.644 1549.52 Q636.561 1549.52 634.292 1549.1 Q632.047 1548.71 629.547 1547.9 L629.547 1543.5 Q631.908 1544.73 634.2 1545.35 Q636.491 1545.95 638.737 1545.95 Q641.746 1545.95 643.366 1544.94 Q644.987 1543.89 644.987 1542.02 Q644.987 1540.28 643.806 1539.36 Q642.649 1538.43 638.69 1537.57 L637.209 1537.23 Q633.25 1536.39 631.491 1534.68 Q629.732 1532.95 629.732 1529.94 Q629.732 1526.28 632.325 1524.29 Q634.917 1522.3 639.686 1522.3 Q642.047 1522.3 644.13 1522.64 Q646.213 1522.99 647.973 1523.69 Z" fill="#000000" fill-rule="nonzero" fill-opacity="1"></path><path clip-path="url(#clip050)" d="M656.144 1522.92 L660.403 1522.92 L660.403 1548.85 L656.144 1548.85 L656.144 1522.92 M656.144 1512.83 L660.403 1512.83 L660.403 1518.22 L656.144 1518.22 L656.144 1512.83 Z" fill="#000000" fill-rule="nonzero" fill-opacity="1"></path><path clip-path="url(#clip050)" d="M690.866 1533.2 L690.866 1548.85 L686.607 1548.85 L686.607 1533.34 Q686.607 1529.66 685.171 1527.83 Q683.736 1526 680.866 1526 Q677.417 1526 675.426 1528.2 Q673.435 1530.4 673.435 1534.2 L673.435 1548.85 L669.153 1548.85 L669.153 1522.92 L673.435 1522.92 L673.435 1526.95 Q674.963 1524.61 677.023 1523.45 Q679.107 1522.3 681.815 1522.3 Q686.283 1522.3 688.574 1525.07 Q690.866 1527.83 690.866 1533.2 Z" fill="#000000" fill-rule="nonzero" fill-opacity="1"></path><path clip-path="url(#clip050)" d="M721.537 1534.82 L721.537 1536.9 L701.954 1536.9 Q702.232 1541.3 704.593 1543.62 Q706.977 1545.91 711.213 1545.91 Q713.667 1545.91 715.958 1545.31 Q718.273 1544.7 720.542 1543.5 L720.542 1547.53 Q718.25 1548.5 715.843 1549.01 Q713.435 1549.52 710.958 1549.52 Q704.755 1549.52 701.12 1545.91 Q697.509 1542.3 697.509 1536.14 Q697.509 1529.77 700.935 1526.05 Q704.384 1522.3 710.218 1522.3 Q715.449 1522.3 718.481 1525.68 Q721.537 1529.03 721.537 1534.82 M717.278 1533.57 Q717.231 1530.07 715.31 1527.99 Q713.412 1525.91 710.264 1525.91 Q706.699 1525.91 704.546 1527.92 Q702.417 1529.94 702.093 1533.59 L717.278 1533.57 Z" fill="#000000" fill-rule="nonzero" fill-opacity="1"></path><path clip-path="url(#clip050)" d="M738.759 1512.88 Q735.657 1518.2 734.153 1523.41 Q732.648 1528.62 732.648 1533.96 Q732.648 1539.31 734.153 1544.57 Q735.68 1549.8 738.759 1555.1 L735.055 1555.1 Q731.583 1549.66 729.847 1544.4 Q728.134 1539.15 728.134 1533.96 Q728.134 1528.8 729.847 1523.57 Q731.56 1518.34 735.055 1512.88 L738.759 1512.88 Z" fill="#000000" fill-rule="nonzero" fill-opacity="1"></path><path clip-path="url(#clip050)" d="M746.352 1512.88 L750.055 1512.88 Q753.528 1518.34 755.241 1523.57 Q756.977 1528.8 756.977 1533.96 Q756.977 1539.15 755.241 1544.4 Q753.528 1549.66 750.055 1555.1 L746.352 1555.1 Q749.43 1549.8 750.935 1544.57 Q752.463 1539.31 752.463 1533.96 Q752.463 1528.62 750.935 1523.41 Q749.43 1518.2 746.352 1512.88 Z" fill="#000000" fill-rule="nonzero" fill-opacity="1"></path><path clip-path="url(#clip050)" d="M1818.12 1516.95 L1818.12 1521.88 Q1815.76 1519.68 1813.08 1518.59 Q1810.42 1517.51 1807.41 1517.51 Q1801.48 1517.51 1798.33 1521.14 Q1795.18 1524.75 1795.18 1531.6 Q1795.18 1538.43 1798.33 1542.07 Q1801.48 1545.68 1807.41 1545.68 Q1810.42 1545.68 1813.08 1544.59 Q1815.76 1543.5 1818.12 1541.3 L1818.12 1546.19 Q1815.67 1547.85 1812.92 1548.69 Q1810.18 1549.52 1807.13 1549.52 Q1799.28 1549.52 1794.77 1544.73 Q1790.25 1539.91 1790.25 1531.6 Q1790.25 1523.27 1794.77 1518.48 Q1799.28 1513.66 1807.13 1513.66 Q1810.23 1513.66 1812.96 1514.5 Q1815.72 1515.31 1818.12 1516.95 Z" fill="#000000" fill-rule="nonzero" fill-opacity="1"></path><path clip-path="url(#clip050)" d="M1835.21 1525.91 Q1831.78 1525.91 1829.79 1528.59 Q1827.8 1531.26 1827.8 1535.91 Q1827.8 1540.56 1829.77 1543.25 Q1831.76 1545.91 1835.21 1545.91 Q1838.61 1545.91 1840.6 1543.22 Q1842.59 1540.54 1842.59 1535.91 Q1842.59 1531.3 1840.6 1528.62 Q1838.61 1525.91 1835.21 1525.91 M1835.21 1522.3 Q1840.76 1522.3 1843.93 1525.91 Q1847.11 1529.52 1847.11 1535.91 Q1847.11 1542.27 1843.93 1545.91 Q1840.76 1549.52 1835.21 1549.52 Q1829.63 1549.52 1826.46 1545.91 Q1823.31 1542.27 1823.31 1535.91 Q1823.31 1529.52 1826.46 1525.91 Q1829.63 1522.3 1835.21 1522.3 Z" fill="#000000" fill-rule="nonzero" fill-opacity="1"></path><path clip-path="url(#clip050)" d="M1870.69 1523.69 L1870.69 1527.71 Q1868.89 1526.79 1866.94 1526.32 Q1865 1525.86 1862.92 1525.86 Q1859.74 1525.86 1858.15 1526.83 Q1856.57 1527.81 1856.57 1529.75 Q1856.57 1531.23 1857.71 1532.09 Q1858.84 1532.92 1862.27 1533.69 L1863.73 1534.01 Q1868.26 1534.98 1870.16 1536.76 Q1872.08 1538.52 1872.08 1541.7 Q1872.08 1545.31 1869.21 1547.41 Q1866.36 1549.52 1861.36 1549.52 Q1859.28 1549.52 1857.01 1549.1 Q1854.77 1548.71 1852.27 1547.9 L1852.27 1543.5 Q1854.63 1544.73 1856.92 1545.35 Q1859.21 1545.95 1861.46 1545.95 Q1864.47 1545.95 1866.09 1544.94 Q1867.71 1543.89 1867.71 1542.02 Q1867.71 1540.28 1866.53 1539.36 Q1865.37 1538.43 1861.41 1537.57 L1859.93 1537.23 Q1855.97 1536.39 1854.21 1534.68 Q1852.45 1532.95 1852.45 1529.94 Q1852.45 1526.28 1855.04 1524.29 Q1857.64 1522.3 1862.41 1522.3 Q1864.77 1522.3 1866.85 1522.64 Q1868.93 1522.99 1870.69 1523.69 Z" fill="#000000" fill-rule="nonzero" fill-opacity="1"></path><path clip-path="url(#clip050)" d="M1878.86 1522.92 L1883.12 1522.92 L1883.12 1548.85 L1878.86 1548.85 L1878.86 1522.92 M1878.86 1512.83 L1883.12 1512.83 L1883.12 1518.22 L1878.86 1518.22 L1878.86 1512.83 Z" fill="#000000" fill-rule="nonzero" fill-opacity="1"></path><path clip-path="url(#clip050)" d="M1913.59 1533.2 L1913.59 1548.85 L1909.33 1548.85 L1909.33 1533.34 Q1909.33 1529.66 1907.89 1527.83 Q1906.46 1526 1903.59 1526 Q1900.14 1526 1898.15 1528.2 Q1896.16 1530.4 1896.16 1534.2 L1896.16 1548.85 L1891.87 1548.85 L1891.87 1522.92 L1896.16 1522.92 L1896.16 1526.95 Q1897.68 1524.61 1899.74 1523.45 Q1901.83 1522.3 1904.54 1522.3 Q1909 1522.3 1911.29 1525.07 Q1913.59 1527.83 1913.59 1533.2 Z" fill="#000000" fill-rule="nonzero" fill-opacity="1"></path><path clip-path="url(#clip050)" d="M1944.26 1534.82 L1944.26 1536.9 L1924.67 1536.9 Q1924.95 1541.3 1927.31 1543.62 Q1929.7 1545.91 1933.93 1545.91 Q1936.39 1545.91 1938.68 1545.31 Q1940.99 1544.7 1943.26 1543.5 L1943.26 1547.53 Q1940.97 1548.5 1938.56 1549.01 Q1936.16 1549.52 1933.68 1549.52 Q1927.48 1549.52 1923.84 1545.91 Q1920.23 1542.3 1920.23 1536.14 Q1920.23 1529.77 1923.66 1526.05 Q1927.1 1522.3 1932.94 1522.3 Q1938.17 1522.3 1941.2 1525.68 Q1944.26 1529.03 1944.26 1534.82 M1940 1533.57 Q1939.95 1530.07 1938.03 1527.99 Q1936.13 1525.91 1932.98 1525.91 Q1929.42 1525.91 1927.27 1527.92 Q1925.14 1529.94 1924.81 1533.59 L1940 1533.57 Z" fill="#000000" fill-rule="nonzero" fill-opacity="1"></path><path clip-path="url(#clip050)" d="M1956.11 1518.13 L1956.11 1545.01 L1961.76 1545.01 Q1968.91 1545.01 1972.22 1541.76 Q1975.55 1538.52 1975.55 1531.53 Q1975.55 1524.59 1972.22 1521.37 Q1968.91 1518.13 1961.76 1518.13 L1956.11 1518.13 M1951.43 1514.29 L1961.04 1514.29 Q1971.09 1514.29 1975.79 1518.48 Q1980.48 1522.64 1980.48 1531.53 Q1980.48 1540.47 1975.76 1544.66 Q1971.04 1548.85 1961.04 1548.85 L1951.43 1548.85 L1951.43 1514.29 Z" fill="#000000" fill-rule="nonzero" fill-opacity="1"></path><path clip-path="url(#clip050)" d="M1987.75 1522.92 L1992.01 1522.92 L1992.01 1548.85 L1987.75 1548.85 L1987.75 1522.92 M1987.75 1512.83 L1992.01 1512.83 L1992.01 1518.22 L1987.75 1518.22 L1987.75 1512.83 Z" fill="#000000" fill-rule="nonzero" fill-opacity="1"></path><path clip-path="url(#clip050)" d="M2017.45 1523.69 L2017.45 1527.71 Q2015.65 1526.79 2013.7 1526.32 Q2011.76 1525.86 2009.67 1525.86 Q2006.5 1525.86 2004.91 1526.83 Q2003.33 1527.81 2003.33 1529.75 Q2003.33 1531.23 2004.47 1532.09 Q2005.6 1532.92 2009.03 1533.69 L2010.48 1534.01 Q2015.02 1534.98 2016.92 1536.76 Q2018.84 1538.52 2018.84 1541.7 Q2018.84 1545.31 2015.97 1547.41 Q2013.12 1549.52 2008.12 1549.52 Q2006.04 1549.52 2003.77 1549.1 Q2001.53 1548.71 1999.03 1547.9 L1999.03 1543.5 Q2001.39 1544.73 2003.68 1545.35 Q2005.97 1545.95 2008.22 1545.95 Q2011.22 1545.95 2012.84 1544.94 Q2014.47 1543.89 2014.47 1542.02 Q2014.47 1540.28 2013.28 1539.36 Q2012.13 1538.43 2008.17 1537.57 L2006.69 1537.23 Q2002.73 1536.39 2000.97 1534.68 Q1999.21 1532.95 1999.21 1529.94 Q1999.21 1526.28 2001.8 1524.29 Q2004.4 1522.3 2009.16 1522.3 Q2011.53 1522.3 2013.61 1522.64 Q2015.69 1522.99 2017.45 1523.69 Z" fill="#000000" fill-rule="nonzero" fill-opacity="1"></path><path clip-path="url(#clip050)" d="M2029.84 1515.56 L2029.84 1522.92 L2038.61 1522.92 L2038.61 1526.23 L2029.84 1526.23 L2029.84 1540.31 Q2029.84 1543.48 2030.69 1544.38 Q2031.57 1545.28 2034.23 1545.28 L2038.61 1545.28 L2038.61 1548.85 L2034.23 1548.85 Q2029.3 1548.85 2027.43 1547.02 Q2025.55 1545.17 2025.55 1540.31 L2025.55 1526.23 L2022.43 1526.23 L2022.43 1522.92 L2025.55 1522.92 L2025.55 1515.56 L2029.84 1515.56 Z" fill="#000000" fill-rule="nonzero" fill-opacity="1"></path><path clip-path="url(#clip050)" d="M2054.44 1512.88 Q2051.34 1518.2 2049.84 1523.41 Q2048.33 1528.62 2048.33 1533.96 Q2048.33 1539.31 2049.84 1544.57 Q2051.36 1549.8 2054.44 1555.1 L2050.74 1555.1 Q2047.27 1549.66 2045.53 1544.4 Q2043.82 1539.15 2043.82 1533.96 Q2043.82 1528.8 2045.53 1523.57 Q2047.24 1518.34 2050.74 1512.88 L2054.44 1512.88 Z" fill="#000000" fill-rule="nonzero" fill-opacity="1"></path><path clip-path="url(#clip050)" d="M2062.03 1512.88 L2065.74 1512.88 Q2069.21 1518.34 2070.92 1523.57 Q2072.66 1528.8 2072.66 1533.96 Q2072.66 1539.15 2070.92 1544.4 Q2069.21 1549.66 2065.74 1555.1 L2062.03 1555.1 Q2065.11 1549.8 2066.62 1544.57 Q2068.15 1539.31 2068.15 1533.96 Q2068.15 1528.62 2066.62 1523.41 Q2065.11 1518.2 2062.03 1512.88 Z" fill="#000000" fill-rule="nonzero" fill-opacity="1"></path><polyline clip-path="url(#clip052)" style="stroke:#000000; stroke-linecap:round; stroke-linejoin:round; stroke-width:2; stroke-opacity:0.1; fill:none" points="244.451,928.548 2352.76,928.548 "></polyline>
<polyline clip-path="url(#clip052)" style="stroke:#000000; stroke-linecap:round; stroke-linejoin:round; stroke-width:2; stroke-opacity:0.1; fill:none" points="244.451,213.872 2352.76,213.872 "></polyline>
<polyline clip-path="url(#clip050)" style="stroke:#000000; stroke-linecap:round; stroke-linejoin:round; stroke-width:4; stroke-opacity:1; fill:none" points="244.451,1486.45 244.451,47.2441 "></polyline>
<polyline clip-path="url(#clip050)" style="stroke:#000000; stroke-linecap:round; stroke-linejoin:round; stroke-width:4; stroke-opacity:1; fill:none" points="244.451,928.548 263.349,928.548 "></polyline>
<polyline clip-path="url(#clip050)" style="stroke:#000000; stroke-linecap:round; stroke-linejoin:round; stroke-width:4; stroke-opacity:1; fill:none" points="244.451,213.872 263.349,213.872 "></polyline>
<path clip-path="url(#clip050)" d="M137.783 948.34 L145.422 948.34 L145.422 921.974 L137.112 923.641 L137.112 919.382 L145.375 917.715 L150.051 917.715 L150.051 948.34 L157.69 948.34 L157.69 952.275 L137.783 952.275 L137.783 948.34 Z" fill="#000000" fill-rule="nonzero" fill-opacity="1"></path><path clip-path="url(#clip050)" d="M177.135 920.794 Q173.523 920.794 171.695 924.359 Q169.889 927.9 169.889 935.03 Q169.889 942.136 171.695 945.701 Q173.523 949.243 177.135 949.243 Q180.769 949.243 182.574 945.701 Q184.403 942.136 184.403 935.03 Q184.403 927.9 182.574 924.359 Q180.769 920.794 177.135 920.794 M177.135 917.09 Q182.945 917.09 186 921.697 Q189.079 926.28 189.079 935.03 Q189.079 943.757 186 948.363 Q182.945 952.946 177.135 952.946 Q171.324 952.946 168.246 948.363 Q165.19 943.757 165.19 935.03 Q165.19 926.28 168.246 921.697 Q171.324 917.09 177.135 917.09 Z" fill="#000000" fill-rule="nonzero" fill-opacity="1"></path><path clip-path="url(#clip050)" d="M190.884 924.282 L190.884 920.821 Q192.314 921.498 193.781 921.856 Q195.248 922.213 196.658 922.213 Q200.42 922.213 202.395 919.693 Q204.388 917.154 204.671 912 Q203.58 913.618 201.906 914.483 Q200.232 915.348 198.201 915.348 Q193.988 915.348 191.524 912.809 Q189.079 910.251 189.079 905.831 Q189.079 901.506 191.637 898.891 Q194.195 896.277 198.445 896.277 Q203.316 896.277 205.874 900.02 Q208.451 903.744 208.451 910.853 Q208.451 917.492 205.291 921.461 Q202.15 925.41 196.828 925.41 Q195.398 925.41 193.931 925.128 Q192.464 924.846 190.884 924.282 M198.445 912.376 Q201.003 912.376 202.489 910.627 Q203.993 908.878 203.993 905.831 Q203.993 902.803 202.489 901.054 Q201.003 899.286 198.445 899.286 Q195.887 899.286 194.383 901.054 Q192.897 902.803 192.897 905.831 Q192.897 908.878 194.383 910.627 Q195.887 912.376 198.445 912.376 Z" fill="#000000" fill-rule="nonzero" fill-opacity="1"></path><path clip-path="url(#clip050)" d="M114.931 233.664 L122.57 233.664 L122.57 207.299 L114.26 208.965 L114.26 204.706 L122.524 203.039 L127.2 203.039 L127.2 233.664 L134.839 233.664 L134.839 237.599 L114.931 237.599 L114.931 233.664 Z" fill="#000000" fill-rule="nonzero" fill-opacity="1"></path><path clip-path="url(#clip050)" d="M154.283 206.118 Q150.672 206.118 148.843 209.683 Q147.038 213.224 147.038 220.354 Q147.038 227.461 148.843 231.025 Q150.672 234.567 154.283 234.567 Q157.917 234.567 159.723 231.025 Q161.552 227.461 161.552 220.354 Q161.552 213.224 159.723 209.683 Q157.917 206.118 154.283 206.118 M154.283 202.414 Q160.093 202.414 163.149 207.021 Q166.227 211.604 166.227 220.354 Q166.227 229.081 163.149 233.687 Q160.093 238.271 154.283 238.271 Q148.473 238.271 145.394 233.687 Q142.339 229.081 142.339 220.354 Q142.339 211.604 145.394 207.021 Q148.473 202.414 154.283 202.414 Z" fill="#000000" fill-rule="nonzero" fill-opacity="1"></path><path clip-path="url(#clip050)" d="M166.773 206.992 L172.979 206.992 L172.979 185.57 L166.227 186.924 L166.227 183.463 L172.942 182.109 L176.741 182.109 L176.741 206.992 L182.948 206.992 L182.948 210.189 L166.773 210.189 L166.773 206.992 Z" fill="#000000" fill-rule="nonzero" fill-opacity="1"></path><path clip-path="url(#clip050)" d="M198.746 184.61 Q195.812 184.61 194.326 187.507 Q192.859 190.384 192.859 196.177 Q192.859 201.951 194.326 204.848 Q195.812 207.725 198.746 207.725 Q201.699 207.725 203.166 204.848 Q204.652 201.951 204.652 196.177 Q204.652 190.384 203.166 187.507 Q201.699 184.61 198.746 184.61 M198.746 181.601 Q203.467 181.601 205.949 185.344 Q208.451 189.068 208.451 196.177 Q208.451 203.268 205.949 207.01 Q203.467 210.734 198.746 210.734 Q194.025 210.734 191.524 207.01 Q189.041 203.268 189.041 196.177 Q189.041 189.068 191.524 185.344 Q194.025 181.601 198.746 181.601 Z" fill="#000000" fill-rule="nonzero" fill-opacity="1"></path><path clip-path="url(#clip050)" d="M18.2347 836.312 L28.3562 836.312 L28.3562 824.249 L32.9077 824.249 L32.9077 836.312 L52.2594 836.312 Q56.6199 836.312 57.8613 835.134 Q59.1026 833.925 59.1026 830.264 L59.1026 824.249 L64.0042 824.249 L64.0042 830.264 Q64.0042 837.044 61.4897 839.622 Q58.9434 842.2 52.2594 842.2 L32.9077 842.2 L32.9077 846.497 L28.3562 846.497 L28.3562 842.2 L18.2347 842.2 L18.2347 836.312 Z" fill="#000000" fill-rule="nonzero" fill-opacity="1"></path><path clip-path="url(#clip050)" d="M16.4842 785.418 L16.4842 780.007 L70.0516 796.558 L70.0516 801.969 L16.4842 785.418 Z" fill="#000000" fill-rule="nonzero" fill-opacity="1"></path><path clip-path="url(#clip050)" d="M42.4881 723.511 L64.0042 723.511 L64.0042 729.368 L42.679 729.368 Q37.6183 729.368 35.1038 731.341 Q32.5894 733.315 32.5894 737.261 Q32.5894 742.004 35.6131 744.741 Q38.6368 747.478 43.8567 747.478 L64.0042 747.478 L64.0042 753.367 L28.3562 753.367 L28.3562 747.478 L33.8944 747.478 Q30.6797 745.378 29.0883 742.545 Q27.4968 739.68 27.4968 735.956 Q27.4968 729.813 31.3163 726.662 Q35.1038 723.511 42.4881 723.511 Z" fill="#000000" fill-rule="nonzero" fill-opacity="1"></path><path clip-path="url(#clip050)" d="M29.4065 689.105 L34.9447 689.105 Q33.6716 691.587 33.035 694.261 Q32.3984 696.935 32.3984 699.799 Q32.3984 704.16 33.7352 706.356 Q35.072 708.52 37.7456 708.52 Q39.7826 708.52 40.9603 706.961 Q42.1061 705.401 43.1565 700.69 L43.6021 698.685 Q44.9389 692.447 47.3897 689.837 Q49.8086 687.195 54.1691 687.195 Q59.1344 687.195 62.0308 691.142 Q64.9272 695.057 64.9272 701.932 Q64.9272 704.796 64.3543 707.915 Q63.8132 711.003 62.6992 714.44 L56.6518 714.44 Q58.3387 711.194 59.198 708.043 Q60.0256 704.892 60.0256 701.804 Q60.0256 697.667 58.6251 695.439 Q57.1929 693.211 54.6147 693.211 Q52.2276 693.211 50.9545 694.834 Q49.6813 696.425 48.5037 701.868 L48.0262 703.905 Q46.8804 709.348 44.5251 711.767 Q42.138 714.186 38.0002 714.186 Q32.9713 714.186 30.2341 710.621 Q27.4968 707.056 27.4968 700.499 Q27.4968 697.253 27.9743 694.388 Q28.4517 691.524 29.4065 689.105 Z" fill="#000000" fill-rule="nonzero" fill-opacity="1"></path><path clip-path="url(#clip052)" d="M844.805 1445.72 L858.404 1445.33 L870.753 1444.95 L881.515 1444.57 L890.391 1444.19 L897.142 1443.81 L901.6 1443.42 L903.681 1443.04 L903.39 1442.67 L900.829 1442.29 L896.19 1441.91 L889.753 1441.53 L881.874 1441.15 L872.972 1440.77 L863.515 1440.4 L854.001 1440.02 L844.936 1439.64 L836.821 1439.27 L830.127 1438.89 L825.283 1438.52 L822.653 1438.14 L822.524 1437.77 L825.092 1437.4 L830.454 1437.02 L838.595 1436.65 L849.39 1436.28 L862.6 1435.91 L877.881 1435.54 L894.791 1435.17 L912.804 1434.8 L931.336 1434.43 L949.759 1434.06 L967.437 1433.69 L983.748 1433.32 L998.112 1432.95 L1010.02 1432.59 L1019.05 1432.22 L1024.9 1431.85 L1027.38 1431.49 L1026.42 1431.12 L1022.07 1430.75 L1014.51 1430.39 L1004 1430.02 L990.898 1429.66 L975.61 1429.3 L958.587 1428.93 L940.292 1428.57 L921.184 1428.21 L901.702 1427.85 L882.245 1427.48 L863.165 1427.12 L844.758 1426.76 L827.263 1426.4 L810.858 1426.04 L795.668 1425.68 L781.769 1425.32 L769.192 1424.97 L757.934 1424.61 L747.963 1424.25 L739.227 1423.89 L731.661 1423.54 L725.189 1423.18 L719.73 1422.82 L715.203 1422.47 L711.523 1422.11 L708.606 1421.76 L706.365 1421.4 L704.716 1421.05 L703.569 1420.69 L702.834 1420.34 L702.421 1419.99 L702.237 1419.64 L702.191 1419.28 L702.196 1418.93 L702.17 1418.58 L702.037 1418.23 L701.737 1417.88 L701.217 1417.53 L700.445 1417.18 L699.402 1416.83 L698.085 1416.48 L696.509 1416.13 L694.699 1415.78 L692.696 1415.44 L690.545 1415.09 L688.299 1414.74 L686.012 1414.4 L683.736 1414.05 L681.521 1413.7 L679.408 1413.36 L677.432 1413.01 L675.619 1412.67 L673.986 1412.32 L672.544 1411.98 L671.295 1411.64 L670.234 1411.29 L669.355 1410.95 L668.646 1410.61 L668.097 1410.27 L667.696 1409.92 L667.431 1409.58 L667.296 1409.24 L667.282 1408.9 L667.388 1408.56 L667.611 1408.22 L667.952 1407.88 L668.413 1407.54 L668.997 1407.2 L669.703 1406.87 L670.533 1406.53 L671.482 1406.19 L672.543 1405.85 L673.705 1405.52 L674.95 1405.18 L676.257 1404.84 L677.6 1404.51 L678.947 1404.17 L680.267 1403.84 L681.524 1403.5 L682.685 1403.17 L683.716 1402.83 L684.589 1402.5 L685.279 1402.17 L685.769 1401.84 L686.047 1401.5 L686.108 1401.17 L685.954 1400.84 L685.595 1400.51 L685.044 1400.18 L684.32 1399.85 L683.447 1399.51 L682.45 1399.18 L649.051 1399.18 L648.053 1399.51 L647.18 1399.85 L646.457 1400.18 L645.906 1400.51 L645.546 1400.84 L645.393 1401.17 L645.454 1401.5 L645.731 1401.84 L646.221 1402.17 L646.912 1402.5 L647.785 1402.83 L648.816 1403.17 L649.976 1403.5 L651.234 1403.84 L652.553 1404.17 L653.901 1404.51 L655.243 1404.84 L656.551 1405.18 L657.796 1405.52 L658.957 1405.85 L660.019 1406.19 L660.968 1406.53 L661.797 1406.87 L662.504 1407.2 L663.087 1407.54 L663.548 1407.88 L663.89 1408.22 L664.113 1408.56 L664.218 1408.9 L664.205 1409.24 L664.069 1409.58 L663.805 1409.92 L663.403 1410.27 L662.854 1410.61 L662.146 1410.95 L661.267 1411.29 L660.206 1411.64 L658.956 1411.98 L657.514 1412.32 L655.882 1412.67 L654.069 1413.01 L652.093 1413.36 L649.98 1413.7 L647.765 1414.05 L645.489 1414.4 L643.202 1414.74 L640.956 1415.09 L638.805 1415.44 L636.801 1415.78 L634.992 1416.13 L633.415 1416.48 L632.098 1416.83 L631.055 1417.18 L630.283 1417.53 L629.764 1417.88 L629.463 1418.23 L629.331 1418.58 L629.304 1418.93 L629.309 1419.28 L629.264 1419.64 L629.08 1419.99 L628.667 1420.34 L627.932 1420.69 L626.785 1421.05 L625.135 1421.4 L622.895 1421.76 L619.977 1422.11 L616.297 1422.47 L611.77 1422.82 L606.312 1423.18 L599.84 1423.54 L592.273 1423.89 L583.538 1424.25 L573.567 1424.61 L562.308 1424.97 L549.731 1425.32 L535.832 1425.68 L520.643 1426.04 L504.238 1426.4 L486.742 1426.76 L468.335 1427.12 L449.255 1427.48 L429.798 1427.85 L410.316 1428.21 L391.209 1428.57 L372.914 1428.93 L355.89 1429.3 L340.603 1429.66 L327.5 1430.02 L316.993 1430.39 L309.431 1430.75 L305.084 1431.12 L304.12 1431.49 L306.596 1431.85 L312.446 1432.22 L321.48 1432.59 L333.389 1432.95 L347.753 1433.32 L364.063 1433.69 L381.742 1434.06 L400.165 1434.43 L418.696 1434.8 L436.71 1435.17 L453.619 1435.54 L468.9 1435.91 L482.111 1436.28 L492.906 1436.65 L501.047 1437.02 L506.408 1437.4 L508.977 1437.77 L508.848 1438.14 L506.217 1438.52 L501.373 1438.89 L494.68 1439.27 L486.565 1439.64 L477.5 1440.02 L467.985 1440.4 L458.528 1440.77 L449.627 1441.15 L441.748 1441.53 L435.31 1441.91 L430.672 1442.29 L428.11 1442.67 L427.82 1443.04 L429.9 1443.42 L434.358 1443.81 L441.109 1444.19 L449.985 1444.57 L460.747 1444.95 L473.097 1445.33 L486.696 1445.72 L844.805 1445.72  Z" fill="#4169e1" fill-rule="evenodd" fill-opacity="0.5"></path>
<polyline clip-path="url(#clip052)" style="stroke:#000000; stroke-linecap:round; stroke-linejoin:round; stroke-width:4; stroke-opacity:1; fill:none" points="844.805,1445.72 858.404,1445.33 870.753,1444.95 881.515,1444.57 890.391,1444.19 897.142,1443.81 901.6,1443.42 903.681,1443.04 903.39,1442.67 900.829,1442.29 896.19,1441.91 889.753,1441.53 881.874,1441.15 872.972,1440.77 863.515,1440.4 854.001,1440.02 844.936,1439.64 836.821,1439.27 830.127,1438.89 825.283,1438.52 822.653,1438.14 822.524,1437.77 825.092,1437.4 830.454,1437.02 838.595,1436.65 849.39,1436.28 862.6,1435.91 877.881,1435.54 894.791,1435.17 912.804,1434.8 931.336,1434.43 949.759,1434.06 967.437,1433.69 983.748,1433.32 998.112,1432.95 1010.02,1432.59 1019.05,1432.22 1024.9,1431.85 1027.38,1431.49 1026.42,1431.12 1022.07,1430.75 1014.51,1430.39 1004,1430.02 990.898,1429.66 975.61,1429.3 958.587,1428.93 940.292,1428.57 921.184,1428.21 901.702,1427.85 882.245,1427.48 863.165,1427.12 844.758,1426.76 827.263,1426.4 810.858,1426.04 795.668,1425.68 781.769,1425.32 769.192,1424.97 757.934,1424.61 747.963,1424.25 739.227,1423.89 731.661,1423.54 725.189,1423.18 719.73,1422.82 715.203,1422.47 711.523,1422.11 708.606,1421.76 706.365,1421.4 704.716,1421.05 703.569,1420.69 702.834,1420.34 702.421,1419.99 702.237,1419.64 702.191,1419.28 702.196,1418.93 702.17,1418.58 702.037,1418.23 701.737,1417.88 701.217,1417.53 700.445,1417.18 699.402,1416.83 698.085,1416.48 696.509,1416.13 694.699,1415.78 692.696,1415.44 690.545,1415.09 688.299,1414.74 686.012,1414.4 683.736,1414.05 681.521,1413.7 679.408,1413.36 677.432,1413.01 675.619,1412.67 673.986,1412.32 672.544,1411.98 671.295,1411.64 670.234,1411.29 669.355,1410.95 668.646,1410.61 668.097,1410.27 667.696,1409.92 667.431,1409.58 667.296,1409.24 667.282,1408.9 667.388,1408.56 667.611,1408.22 667.952,1407.88 668.413,1407.54 668.997,1407.2 669.703,1406.87 670.533,1406.53 671.482,1406.19 672.543,1405.85 673.705,1405.52 674.95,1405.18 676.257,1404.84 677.6,1404.51 678.947,1404.17 680.267,1403.84 681.524,1403.5 682.685,1403.17 683.716,1402.83 684.589,1402.5 685.279,1402.17 685.769,1401.84 686.047,1401.5 686.108,1401.17 685.954,1400.84 685.595,1400.51 685.044,1400.18 684.32,1399.85 683.447,1399.51 682.45,1399.18 649.051,1399.18 648.053,1399.51 647.18,1399.85 646.457,1400.18 645.906,1400.51 645.546,1400.84 645.393,1401.17 645.454,1401.5 645.731,1401.84 646.221,1402.17 646.912,1402.5 647.785,1402.83 648.816,1403.17 649.976,1403.5 651.234,1403.84 652.553,1404.17 653.901,1404.51 655.243,1404.84 656.551,1405.18 657.796,1405.52 658.957,1405.85 660.019,1406.19 660.968,1406.53 661.797,1406.87 662.504,1407.2 663.087,1407.54 663.548,1407.88 663.89,1408.22 664.113,1408.56 664.218,1408.9 664.205,1409.24 664.069,1409.58 663.805,1409.92 663.403,1410.27 662.854,1410.61 662.146,1410.95 661.267,1411.29 660.206,1411.64 658.956,1411.98 657.514,1412.32 655.882,1412.67 654.069,1413.01 652.093,1413.36 649.98,1413.7 647.765,1414.05 645.489,1414.4 643.202,1414.74 640.956,1415.09 638.805,1415.44 636.801,1415.78 634.992,1416.13 633.415,1416.48 632.098,1416.83 631.055,1417.18 630.283,1417.53 629.764,1417.88 629.463,1418.23 629.331,1418.58 629.304,1418.93 629.309,1419.28 629.264,1419.64 629.08,1419.99 628.667,1420.34 627.932,1420.69 626.785,1421.05 625.135,1421.4 622.895,1421.76 619.977,1422.11 616.297,1422.47 611.77,1422.82 606.312,1423.18 599.84,1423.54 592.273,1423.89 583.538,1424.25 573.567,1424.61 562.308,1424.97 549.731,1425.32 535.832,1425.68 520.643,1426.04 504.238,1426.4 486.742,1426.76 468.335,1427.12 449.255,1427.48 429.798,1427.85 410.316,1428.21 391.209,1428.57 372.914,1428.93 355.89,1429.3 340.603,1429.66 327.5,1430.02 316.993,1430.39 309.431,1430.75 305.084,1431.12 304.12,1431.49 306.596,1431.85 312.446,1432.22 321.48,1432.59 333.389,1432.95 347.753,1433.32 364.063,1433.69 381.742,1434.06 400.165,1434.43 418.696,1434.8 436.71,1435.17 453.619,1435.54 468.9,1435.91 482.111,1436.28 492.906,1436.65 501.047,1437.02 506.408,1437.4 508.977,1437.77 508.848,1438.14 506.217,1438.52 501.373,1438.89 494.68,1439.27 486.565,1439.64 477.5,1440.02 467.985,1440.4 458.528,1440.77 449.627,1441.15 441.748,1441.53 435.31,1441.91 430.672,1442.29 428.11,1442.67 427.82,1443.04 429.9,1443.42 434.358,1443.81 441.109,1444.19 449.985,1444.57 460.747,1444.95 473.097,1445.33 486.696,1445.72 844.805,1445.72 "></polyline>
<path clip-path="url(#clip052)" d="M2125.46 158.451 L2158.36 158.393 L2190.97 158.335 L2221.92 158.277 L2249.48 158.219 L2271.7 158.161 L2286.72 158.103 L2293.09 158.046 L2290.19 157.988 L2278.39 157.93 L2258.96 157.872 L2233.84 157.814 L2205.23 157.756 L2175.22 157.698 L2145.51 157.64 L2117.32 157.583 L2091.32 157.525 L2067.75 157.467 L2046.54 157.409 L2027.44 157.351 L2010.21 157.294 L1994.73 157.236 L1981.01 157.178 L1969.2 157.12 L1959.54 157.063 L1952.23 157.005 L1947.41 156.947 L1945.14 156.889 L1945.36 156.832 L1947.87 156.774 L1952.32 156.716 L1958.17 156.659 L1964.66 156.601 L1970.88 156.543 L1975.87 156.486 L1978.82 156.428 L1979.2 156.371 L1976.95 156.313 L1972.41 156.255 L1966.3 156.198 L1959.46 156.14 L1952.73 156.083 L1946.72 156.025 L1941.8 155.968 L1938.08 155.91 L1935.47 155.853 L1933.75 155.795 L1932.7 155.738 L1932.09 155.68 L1931.76 155.623 L1931.6 155.565 L1931.52 155.508 L1931.48 155.45 L1931.47 155.393 L1931.46 155.335 L1931.46 155.278 L1931.46 155.221 L1931.46 155.163 L1931.46 155.106 L1931.46 155.049 L1931.46 154.991 L1931.46 154.934 L1931.46 154.876 L1931.46 154.819 L1931.46 154.762 L1931.46 154.705 L1931.47 154.647 L1931.49 154.59 L1931.53 154.533 L1931.62 154.475 L1931.82 154.418 L1932.21 154.361 L1932.91 154.304 L1934.12 154.247 L1936.06 154.189 L1938.97 154.132 L1943.03 154.075 L1948.31 154.018 L1954.62 153.961 L1961.53 153.903 L1968.32 153.846 L1974.12 153.789 L1978.09 153.732 L1979.6 153.675 L1978.38 153.618 L1974.65 153.561 L1969 153.504 L1962.28 153.447 L1955.35 153.39 L1948.95 153.333 L1943.55 153.275 L1939.36 153.218 L1936.33 153.161 L1934.29 153.104 L1933.02 153.047 L1932.27 152.99 L1931.85 152.933 L1931.64 152.877 L1931.54 152.82 L1931.49 152.763 L1931.47 152.706 L1931.46 152.649 L1931.46 152.592 L1931.46 152.535 L1931.46 152.478 L1931.46 152.421 L1931.46 152.364 L1931.46 152.307 L1931.46 152.251 L1931.46 152.194 L1931.46 152.137 L1931.46 152.08 L1931.46 152.023 L1931.46 151.967 L1931.46 151.91 L1931.46 151.853 L1931.46 151.796 L1931.46 151.739 L1931.46 151.683 L1931.46 151.626 L1931.46 151.569 L1931.46 151.513 L1931.46 151.456 L1931.46 151.399 L1931.46 151.342 L1931.46 151.286 L1931.46 151.229 L1931.46 151.172 L1931.46 151.116 L1931.46 151.059 L1931.46 151.003 L1931.46 150.946 L1931.46 150.889 L1931.46 150.833 L1931.46 150.776 L1931.46 150.72 L1931.46 150.663 L1931.46 150.607 L1931.46 150.55 L1931.46 150.493 L1931.46 150.437 L1931.46 150.38 L1931.46 150.324 L1931.46 150.267 L1931.46 150.211 L1931.46 150.155 L1931.46 150.098 L1931.46 150.042 L1931.47 149.985 L1931.48 149.929 L1931.52 149.872 L1931.6 149.816 L1931.77 149.76 L1932.11 149.703 L1932.73 149.647 L1933.8 149.59 L1935.55 149.534 L1938.21 149.478 L1941.98 149.421 L1946.95 149.365 L1953 149.309 L1959.76 149.252 L1966.59 149.196 L1972.66 149.14 L1977.11 149.084 L1979.25 149.027 L1883.67 149.027 L1885.8 149.084 L1890.25 149.14 L1896.32 149.196 L1903.15 149.252 L1909.91 149.309 L1915.96 149.365 L1920.93 149.421 L1924.7 149.478 L1927.36 149.534 L1929.11 149.59 L1930.19 149.647 L1930.81 149.703 L1931.14 149.76 L1931.31 149.816 L1931.39 149.872 L1931.43 149.929 L1931.45 149.985 L1931.45 150.042 L1931.46 150.098 L1931.46 150.155 L1931.46 150.211 L1931.46 150.267 L1931.46 150.324 L1931.46 150.38 L1931.46 150.437 L1931.46 150.493 L1931.46 150.55 L1931.46 150.607 L1931.46 150.663 L1931.46 150.72 L1931.46 150.776 L1931.46 150.833 L1931.46 150.889 L1931.46 150.946 L1931.46 151.003 L1931.46 151.059 L1931.46 151.116 L1931.46 151.172 L1931.46 151.229 L1931.46 151.286 L1931.46 151.342 L1931.46 151.399 L1931.46 151.456 L1931.46 151.513 L1931.46 151.569 L1931.46 151.626 L1931.46 151.683 L1931.46 151.739 L1931.46 151.796 L1931.46 151.853 L1931.46 151.91 L1931.46 151.967 L1931.46 152.023 L1931.46 152.08 L1931.46 152.137 L1931.46 152.194 L1931.46 152.251 L1931.46 152.307 L1931.46 152.364 L1931.46 152.421 L1931.46 152.478 L1931.46 152.535 L1931.45 152.592 L1931.45 152.649 L1931.44 152.706 L1931.42 152.763 L1931.38 152.82 L1931.27 152.877 L1931.06 152.933 L1930.65 152.99 L1929.9 153.047 L1928.62 153.104 L1926.58 153.161 L1923.56 153.218 L1919.36 153.275 L1913.96 153.333 L1907.56 153.39 L1900.63 153.447 L1893.91 153.504 L1888.26 153.561 L1884.53 153.618 L1883.32 153.675 L1884.82 153.732 L1888.79 153.789 L1894.6 153.846 L1901.38 153.903 L1908.29 153.961 L1914.6 154.018 L1919.88 154.075 L1923.95 154.132 L1926.86 154.189 L1928.8 154.247 L1930 154.304 L1930.71 154.361 L1931.09 154.418 L1931.29 154.475 L1931.38 154.533 L1931.43 154.59 L1931.44 154.647 L1931.45 154.705 L1931.46 154.762 L1931.46 154.819 L1931.46 154.876 L1931.46 154.934 L1931.46 154.991 L1931.46 155.049 L1931.46 155.106 L1931.46 155.163 L1931.46 155.221 L1931.46 155.278 L1931.45 155.335 L1931.45 155.393 L1931.43 155.45 L1931.4 155.508 L1931.32 155.565 L1931.15 155.623 L1930.82 155.68 L1930.22 155.738 L1929.16 155.795 L1927.45 155.853 L1924.83 155.91 L1921.11 155.968 L1916.19 156.025 L1910.19 156.083 L1903.45 156.14 L1896.61 156.198 L1890.5 156.255 L1885.97 156.313 L1883.71 156.371 L1884.1 156.428 L1887.04 156.486 L1892.03 156.543 L1898.25 156.601 L1904.74 156.659 L1910.59 156.716 L1915.04 156.774 L1917.55 156.832 L1917.77 156.889 L1915.5 156.947 L1910.69 157.005 L1903.37 157.063 L1893.71 157.12 L1881.91 157.178 L1868.19 157.236 L1852.7 157.294 L1835.48 157.351 L1816.38 157.409 L1795.16 157.467 L1771.59 157.525 L1745.6 157.583 L1717.4 157.64 L1687.7 157.698 L1657.68 157.756 L1629.07 157.814 L1603.95 157.872 L1584.53 157.93 L1572.72 157.988 L1569.83 158.046 L1576.2 158.103 L1591.21 158.161 L1613.44 158.219 L1641 158.277 L1671.94 158.335 L1704.55 158.393 L1737.46 158.451 L2125.46 158.451  Z" fill="#4169e1" fill-rule="evenodd" fill-opacity="0.5"></path>
<polyline clip-path="url(#clip052)" style="stroke:#000000; stroke-linecap:round; stroke-linejoin:round; stroke-width:4; stroke-opacity:1; fill:none" points="2125.46,158.451 2158.36,158.393 2190.97,158.335 2221.92,158.277 2249.48,158.219 2271.7,158.161 2286.72,158.103 2293.09,158.046 2290.19,157.988 2278.39,157.93 2258.96,157.872 2233.84,157.814 2205.23,157.756 2175.22,157.698 2145.51,157.64 2117.32,157.583 2091.32,157.525 2067.75,157.467 2046.54,157.409 2027.44,157.351 2010.21,157.294 1994.73,157.236 1981.01,157.178 1969.2,157.12 1959.54,157.063 1952.23,157.005 1947.41,156.947 1945.14,156.889 1945.36,156.832 1947.87,156.774 1952.32,156.716 1958.17,156.659 1964.66,156.601 1970.88,156.543 1975.87,156.486 1978.82,156.428 1979.2,156.371 1976.95,156.313 1972.41,156.255 1966.3,156.198 1959.46,156.14 1952.73,156.083 1946.72,156.025 1941.8,155.968 1938.08,155.91 1935.47,155.853 1933.75,155.795 1932.7,155.738 1932.09,155.68 1931.76,155.623 1931.6,155.565 1931.52,155.508 1931.48,155.45 1931.47,155.393 1931.46,155.335 1931.46,155.278 1931.46,155.221 1931.46,155.163 1931.46,155.106 1931.46,155.049 1931.46,154.991 1931.46,154.934 1931.46,154.876 1931.46,154.819 1931.46,154.762 1931.46,154.705 1931.47,154.647 1931.49,154.59 1931.53,154.533 1931.62,154.475 1931.82,154.418 1932.21,154.361 1932.91,154.304 1934.12,154.247 1936.06,154.189 1938.97,154.132 1943.03,154.075 1948.31,154.018 1954.62,153.961 1961.53,153.903 1968.32,153.846 1974.12,153.789 1978.09,153.732 1979.6,153.675 1978.38,153.618 1974.65,153.561 1969,153.504 1962.28,153.447 1955.35,153.39 1948.95,153.333 1943.55,153.275 1939.36,153.218 1936.33,153.161 1934.29,153.104 1933.02,153.047 1932.27,152.99 1931.85,152.933 1931.64,152.877 1931.54,152.82 1931.49,152.763 1931.47,152.706 1931.46,152.649 1931.46,152.592 1931.46,152.535 1931.46,152.478 1931.46,152.421 1931.46,152.364 1931.46,152.307 1931.46,152.251 1931.46,152.194 1931.46,152.137 1931.46,152.08 1931.46,152.023 1931.46,151.967 1931.46,151.91 1931.46,151.853 1931.46,151.796 1931.46,151.739 1931.46,151.683 1931.46,151.626 1931.46,151.569 1931.46,151.513 1931.46,151.456 1931.46,151.399 1931.46,151.342 1931.46,151.286 1931.46,151.229 1931.46,151.172 1931.46,151.116 1931.46,151.059 1931.46,151.003 1931.46,150.946 1931.46,150.889 1931.46,150.833 1931.46,150.776 1931.46,150.72 1931.46,150.663 1931.46,150.607 1931.46,150.55 1931.46,150.493 1931.46,150.437 1931.46,150.38 1931.46,150.324 1931.46,150.267 1931.46,150.211 1931.46,150.155 1931.46,150.098 1931.46,150.042 1931.47,149.985 1931.48,149.929 1931.52,149.872 1931.6,149.816 1931.77,149.76 1932.11,149.703 1932.73,149.647 1933.8,149.59 1935.55,149.534 1938.21,149.478 1941.98,149.421 1946.95,149.365 1953,149.309 1959.76,149.252 1966.59,149.196 1972.66,149.14 1977.11,149.084 1979.25,149.027 1883.67,149.027 1885.8,149.084 1890.25,149.14 1896.32,149.196 1903.15,149.252 1909.91,149.309 1915.96,149.365 1920.93,149.421 1924.7,149.478 1927.36,149.534 1929.11,149.59 1930.19,149.647 1930.81,149.703 1931.14,149.76 1931.31,149.816 1931.39,149.872 1931.43,149.929 1931.45,149.985 1931.45,150.042 1931.46,150.098 1931.46,150.155 1931.46,150.211 1931.46,150.267 1931.46,150.324 1931.46,150.38 1931.46,150.437 1931.46,150.493 1931.46,150.55 1931.46,150.607 1931.46,150.663 1931.46,150.72 1931.46,150.776 1931.46,150.833 1931.46,150.889 1931.46,150.946 1931.46,151.003 1931.46,151.059 1931.46,151.116 1931.46,151.172 1931.46,151.229 1931.46,151.286 1931.46,151.342 1931.46,151.399 1931.46,151.456 1931.46,151.513 1931.46,151.569 1931.46,151.626 1931.46,151.683 1931.46,151.739 1931.46,151.796 1931.46,151.853 1931.46,151.91 1931.46,151.967 1931.46,152.023 1931.46,152.08 1931.46,152.137 1931.46,152.194 1931.46,152.251 1931.46,152.307 1931.46,152.364 1931.46,152.421 1931.46,152.478 1931.46,152.535 1931.45,152.592 1931.45,152.649 1931.44,152.706 1931.42,152.763 1931.38,152.82 1931.27,152.877 1931.06,152.933 1930.65,152.99 1929.9,153.047 1928.62,153.104 1926.58,153.161 1923.56,153.218 1919.36,153.275 1913.96,153.333 1907.56,153.39 1900.63,153.447 1893.91,153.504 1888.26,153.561 1884.53,153.618 1883.32,153.675 1884.82,153.732 1888.79,153.789 1894.6,153.846 1901.38,153.903 1908.29,153.961 1914.6,154.018 1919.88,154.075 1923.95,154.132 1926.86,154.189 1928.8,154.247 1930,154.304 1930.71,154.361 1931.09,154.418 1931.29,154.475 1931.38,154.533 1931.43,154.59 1931.44,154.647 1931.45,154.705 1931.46,154.762 1931.46,154.819 1931.46,154.876 1931.46,154.934 1931.46,154.991 1931.46,155.049 1931.46,155.106 1931.46,155.163 1931.46,155.221 1931.46,155.278 1931.45,155.335 1931.45,155.393 1931.43,155.45 1931.4,155.508 1931.32,155.565 1931.15,155.623 1930.82,155.68 1930.22,155.738 1929.16,155.795 1927.45,155.853 1924.83,155.91 1921.11,155.968 1916.19,156.025 1910.19,156.083 1903.45,156.14 1896.61,156.198 1890.5,156.255 1885.97,156.313 1883.71,156.371 1884.1,156.428 1887.04,156.486 1892.03,156.543 1898.25,156.601 1904.74,156.659 1910.59,156.716 1915.04,156.774 1917.55,156.832 1917.77,156.889 1915.5,156.947 1910.69,157.005 1903.37,157.063 1893.71,157.12 1881.91,157.178 1868.19,157.236 1852.7,157.294 1835.48,157.351 1816.38,157.409 1795.16,157.467 1771.59,157.525 1745.6,157.583 1717.4,157.64 1687.7,157.698 1657.68,157.756 1629.07,157.814 1603.95,157.872 1584.53,157.93 1572.72,157.988 1569.83,158.046 1576.2,158.103 1591.21,158.161 1613.44,158.219 1641,158.277 1671.94,158.335 1704.55,158.393 1737.46,158.451 2125.46,158.451 "></polyline>
<path clip-path="url(#clip052)" d="M774.125 1394.8 L785.474 1394.41 L796.721 1394.02 L807.651 1393.63 L818.048 1393.24 L827.703 1392.85 L836.422 1392.46 L844.038 1392.08 L850.416 1391.69 L855.461 1391.3 L859.123 1390.91 L861.404 1390.53 L862.354 1390.14 L862.077 1389.76 L860.727 1389.37 L858.503 1388.99 L855.648 1388.6 L852.436 1388.22 L849.168 1387.84 L846.16 1387.45 L843.732 1387.07 L842.194 1386.69 L841.833 1386.31 L842.903 1385.93 L845.605 1385.55 L850.082 1385.17 L856.403 1384.79 L864.56 1384.41 L874.461 1384.03 L885.934 1383.65 L898.731 1383.28 L912.536 1382.9 L926.981 1382.52 L941.665 1382.15 L956.174 1381.77 L970.099 1381.4 L983.06 1381.02 L994.725 1380.65 L1004.82 1380.27 L1013.15 1379.9 L1019.59 1379.53 L1024.08 1379.15 L1026.65 1378.78 L1027.38 1378.41 L1026.38 1378.04 L1023.81 1377.67 L1019.83 1377.3 L1014.62 1376.93 L1008.33 1376.56 L1001.1 1376.19 L993.055 1375.82 L984.31 1375.45 L974.95 1375.09 L965.055 1374.72 L954.704 1374.35 L943.974 1373.99 L932.956 1373.62 L921.75 1373.26 L910.471 1372.89 L899.247 1372.53 L888.217 1372.16 L877.523 1371.8 L867.302 1371.44 L857.684 1371.07 L848.778 1370.71 L840.665 1370.35 L833.396 1369.99 L826.985 1369.63 L821.408 1369.26 L816.604 1368.9 L812.481 1368.54 L808.919 1368.18 L805.782 1367.83 L802.924 1367.47 L800.199 1367.11 L797.471 1366.75 L794.62 1366.39 L791.551 1366.04 L788.193 1365.68 L784.506 1365.32 L780.473 1364.97 L776.103 1364.61 L771.427 1364.26 L766.488 1363.9 L761.342 1363.55 L756.048 1363.2 L750.67 1362.84 L745.266 1362.49 L739.894 1362.14 L734.606 1361.78 L729.445 1361.43 L724.451 1361.08 L719.656 1360.73 L715.083 1360.38 L710.753 1360.03 L706.677 1359.68 L702.862 1359.33 L699.308 1358.98 L696.012 1358.63 L692.963 1358.28 L690.152 1357.94 L687.563 1357.59 L685.182 1357.24 L682.994 1356.9 L680.985 1356.55 L679.145 1356.2 L677.463 1355.86 L675.932 1355.51 L674.548 1355.17 L673.309 1354.82 L672.212 1354.48 L671.258 1354.14 L670.446 1353.79 L669.777 1353.45 L669.251 1353.11 L668.866 1352.77 L668.622 1352.42 L668.515 1352.08 L668.541 1351.74 L668.696 1351.4 L668.971 1351.06 L669.357 1350.72 L669.84 1350.38 L670.406 1350.04 L671.037 1349.7 L671.709 1349.37 L672.4 1349.03 L673.082 1348.69 L673.73 1348.35 L674.316 1348.02 L674.814 1347.68 L675.204 1347.34 L675.466 1347.01 L675.588 1346.67 L655.912 1346.67 L656.035 1347.01 L656.297 1347.34 L656.686 1347.68 L657.185 1348.02 L657.771 1348.35 L658.418 1348.69 L659.101 1349.03 L659.792 1349.37 L660.464 1349.7 L661.094 1350.04 L661.66 1350.38 L662.144 1350.72 L662.53 1351.06 L662.805 1351.4 L662.959 1351.74 L662.986 1352.08 L662.879 1352.42 L662.634 1352.77 L662.25 1353.11 L661.723 1353.45 L661.055 1353.79 L660.243 1354.14 L659.289 1354.48 L658.192 1354.82 L656.952 1355.17 L655.568 1355.51 L654.038 1355.86 L652.356 1356.2 L650.515 1356.55 L648.507 1356.9 L646.319 1357.24 L643.938 1357.59 L641.349 1357.94 L638.537 1358.28 L635.489 1358.63 L632.192 1358.98 L628.639 1359.33 L624.824 1359.68 L620.748 1360.03 L616.417 1360.38 L611.845 1360.73 L607.049 1361.08 L602.055 1361.43 L596.895 1361.78 L591.606 1362.14 L586.234 1362.49 L580.831 1362.84 L575.452 1363.2 L570.159 1363.55 L565.012 1363.9 L560.074 1364.26 L555.397 1364.61 L551.028 1364.97 L546.995 1365.32 L543.307 1365.68 L539.95 1366.04 L536.881 1366.39 L534.03 1366.75 L531.301 1367.11 L528.576 1367.47 L525.718 1367.83 L522.581 1368.18 L519.02 1368.54 L514.897 1368.9 L510.093 1369.26 L504.515 1369.63 L498.104 1369.99 L490.835 1370.35 L482.723 1370.71 L473.816 1371.07 L464.198 1371.44 L453.978 1371.8 L443.283 1372.16 L432.253 1372.53 L421.03 1372.89 L409.751 1373.26 L398.545 1373.62 L387.526 1373.99 L376.797 1374.35 L366.445 1374.72 L356.551 1375.09 L347.191 1375.45 L338.445 1375.82 L330.405 1376.19 L323.175 1376.56 L316.881 1376.93 L311.666 1377.3 L307.689 1377.67 L305.118 1378.04 L304.12 1378.41 L304.846 1378.78 L307.418 1379.15 L311.912 1379.53 L318.349 1379.9 L326.678 1380.27 L336.775 1380.65 L348.44 1381.02 L361.402 1381.4 L375.327 1381.77 L389.835 1382.15 L404.52 1382.52 L418.965 1382.9 L432.77 1383.28 L445.566 1383.65 L457.04 1384.03 L466.941 1384.41 L475.097 1384.79 L481.418 1385.17 L485.895 1385.55 L488.598 1385.93 L489.667 1386.31 L489.307 1386.69 L487.769 1387.07 L485.34 1387.45 L482.332 1387.84 L479.065 1388.22 L475.853 1388.6 L472.997 1388.99 L470.774 1389.37 L469.424 1389.76 L469.147 1390.14 L470.097 1390.53 L472.377 1390.91 L476.04 1391.3 L481.085 1391.69 L487.462 1392.08 L495.078 1392.46 L503.798 1392.85 L513.452 1393.24 L523.849 1393.63 L534.779 1394.02 L546.026 1394.41 L557.376 1394.8 L774.125 1394.8  Z" fill="#800080" fill-rule="evenodd" fill-opacity="0.5"></path>
<polyline clip-path="url(#clip052)" style="stroke:#000000; stroke-linecap:round; stroke-linejoin:round; stroke-width:4; stroke-opacity:1; fill:none" points="774.125,1394.8 785.474,1394.41 796.721,1394.02 807.651,1393.63 818.048,1393.24 827.703,1392.85 836.422,1392.46 844.038,1392.08 850.416,1391.69 855.461,1391.3 859.123,1390.91 861.404,1390.53 862.354,1390.14 862.077,1389.76 860.727,1389.37 858.503,1388.99 855.648,1388.6 852.436,1388.22 849.168,1387.84 846.16,1387.45 843.732,1387.07 842.194,1386.69 841.833,1386.31 842.903,1385.93 845.605,1385.55 850.082,1385.17 856.403,1384.79 864.56,1384.41 874.461,1384.03 885.934,1383.65 898.731,1383.28 912.536,1382.9 926.981,1382.52 941.665,1382.15 956.174,1381.77 970.099,1381.4 983.06,1381.02 994.725,1380.65 1004.82,1380.27 1013.15,1379.9 1019.59,1379.53 1024.08,1379.15 1026.65,1378.78 1027.38,1378.41 1026.38,1378.04 1023.81,1377.67 1019.83,1377.3 1014.62,1376.93 1008.33,1376.56 1001.1,1376.19 993.055,1375.82 984.31,1375.45 974.95,1375.09 965.055,1374.72 954.704,1374.35 943.974,1373.99 932.956,1373.62 921.75,1373.26 910.471,1372.89 899.247,1372.53 888.217,1372.16 877.523,1371.8 867.302,1371.44 857.684,1371.07 848.778,1370.71 840.665,1370.35 833.396,1369.99 826.985,1369.63 821.408,1369.26 816.604,1368.9 812.481,1368.54 808.919,1368.18 805.782,1367.83 802.924,1367.47 800.199,1367.11 797.471,1366.75 794.62,1366.39 791.551,1366.04 788.193,1365.68 784.506,1365.32 780.473,1364.97 776.103,1364.61 771.427,1364.26 766.488,1363.9 761.342,1363.55 756.048,1363.2 750.67,1362.84 745.266,1362.49 739.894,1362.14 734.606,1361.78 729.445,1361.43 724.451,1361.08 719.656,1360.73 715.083,1360.38 710.753,1360.03 706.677,1359.68 702.862,1359.33 699.308,1358.98 696.012,1358.63 692.963,1358.28 690.152,1357.94 687.563,1357.59 685.182,1357.24 682.994,1356.9 680.985,1356.55 679.145,1356.2 677.463,1355.86 675.932,1355.51 674.548,1355.17 673.309,1354.82 672.212,1354.48 671.258,1354.14 670.446,1353.79 669.777,1353.45 669.251,1353.11 668.866,1352.77 668.622,1352.42 668.515,1352.08 668.541,1351.74 668.696,1351.4 668.971,1351.06 669.357,1350.72 669.84,1350.38 670.406,1350.04 671.037,1349.7 671.709,1349.37 672.4,1349.03 673.082,1348.69 673.73,1348.35 674.316,1348.02 674.814,1347.68 675.204,1347.34 675.466,1347.01 675.588,1346.67 655.912,1346.67 656.035,1347.01 656.297,1347.34 656.686,1347.68 657.185,1348.02 657.771,1348.35 658.418,1348.69 659.101,1349.03 659.792,1349.37 660.464,1349.7 661.094,1350.04 661.66,1350.38 662.144,1350.72 662.53,1351.06 662.805,1351.4 662.959,1351.74 662.986,1352.08 662.879,1352.42 662.634,1352.77 662.25,1353.11 661.723,1353.45 661.055,1353.79 660.243,1354.14 659.289,1354.48 658.192,1354.82 656.952,1355.17 655.568,1355.51 654.038,1355.86 652.356,1356.2 650.515,1356.55 648.507,1356.9 646.319,1357.24 643.938,1357.59 641.349,1357.94 638.537,1358.28 635.489,1358.63 632.192,1358.98 628.639,1359.33 624.824,1359.68 620.748,1360.03 616.417,1360.38 611.845,1360.73 607.049,1361.08 602.055,1361.43 596.895,1361.78 591.606,1362.14 586.234,1362.49 580.831,1362.84 575.452,1363.2 570.159,1363.55 565.012,1363.9 560.074,1364.26 555.397,1364.61 551.028,1364.97 546.995,1365.32 543.307,1365.68 539.95,1366.04 536.881,1366.39 534.03,1366.75 531.301,1367.11 528.576,1367.47 525.718,1367.83 522.581,1368.18 519.02,1368.54 514.897,1368.9 510.093,1369.26 504.515,1369.63 498.104,1369.99 490.835,1370.35 482.723,1370.71 473.816,1371.07 464.198,1371.44 453.978,1371.8 443.283,1372.16 432.253,1372.53 421.03,1372.89 409.751,1373.26 398.545,1373.62 387.526,1373.99 376.797,1374.35 366.445,1374.72 356.551,1375.09 347.191,1375.45 338.445,1375.82 330.405,1376.19 323.175,1376.56 316.881,1376.93 311.666,1377.3 307.689,1377.67 305.118,1378.04 304.12,1378.41 304.846,1378.78 307.418,1379.15 311.912,1379.53 318.349,1379.9 326.678,1380.27 336.775,1380.65 348.44,1381.02 361.402,1381.4 375.327,1381.77 389.835,1382.15 404.52,1382.52 418.965,1382.9 432.77,1383.28 445.566,1383.65 457.04,1384.03 466.941,1384.41 475.097,1384.79 481.418,1385.17 485.895,1385.55 488.598,1385.93 489.667,1386.31 489.307,1386.69 487.769,1387.07 485.34,1387.45 482.332,1387.84 479.065,1388.22 475.853,1388.6 472.997,1388.99 470.774,1389.37 469.424,1389.76 469.147,1390.14 470.097,1390.53 472.377,1390.91 476.04,1391.3 481.085,1391.69 487.462,1392.08 495.078,1392.46 503.798,1392.85 513.452,1393.24 523.849,1393.63 534.779,1394.02 546.026,1394.41 557.376,1394.8 774.125,1394.8 "></polyline>
<path clip-path="url(#clip052)" d="M2061.21 124.677 L2077.72 124.648 L2095.22 124.62 L2113.59 124.592 L2132.65 124.564 L2152.16 124.535 L2171.82 124.507 L2191.29 124.479 L2210.15 124.451 L2228.01 124.422 L2244.44 124.394 L2259.02 124.366 L2271.39 124.338 L2281.2 124.31 L2288.2 124.281 L2292.19 124.253 L2293.09 124.225 L2290.88 124.197 L2285.67 124.168 L2277.68 124.14 L2267.22 124.112 L2254.67 124.084 L2240.5 124.056 L2225.2 124.027 L2209.25 123.999 L2193.09 123.971 L2177.13 123.943 L2161.66 123.915 L2146.87 123.887 L2132.86 123.858 L2119.66 123.83 L2107.23 123.802 L2095.5 123.774 L2084.41 123.746 L2073.89 123.717 L2063.95 123.689 L2054.61 123.661 L2045.91 123.633 L2037.93 123.605 L2030.71 123.577 L2024.3 123.548 L2018.65 123.52 L2013.71 123.492 L2009.34 123.464 L2005.39 123.436 L2001.66 123.408 L1997.97 123.38 L1994.17 123.351 L1990.12 123.323 L1985.79 123.295 L1981.15 123.267 L1976.26 123.239 L1971.22 123.211 L1966.14 123.183 L1961.18 123.155 L1956.45 123.126 L1952.07 123.098 L1948.13 123.07 L1944.67 123.042 L1941.72 123.014 L1939.26 122.986 L1937.27 122.958 L1935.7 122.93 L1934.49 122.902 L1933.58 122.874 L1932.91 122.845 L1932.43 122.817 L1932.1 122.789 L1931.87 122.761 L1931.72 122.733 L1931.62 122.705 L1931.55 122.677 L1931.51 122.649 L1931.49 122.621 L1931.48 122.593 L1931.47 122.565 L1931.46 122.537 L1931.46 122.509 L1931.46 122.48 L1931.46 122.452 L1931.46 122.424 L1931.46 122.396 L1931.46 122.368 L1931.46 122.34 L1931.46 122.312 L1931.46 122.284 L1931.46 122.256 L1931.46 122.228 L1931.46 122.2 L1931.46 122.172 L1931.46 122.144 L1931.46 122.116 L1931.46 122.088 L1931.46 122.06 L1931.46 122.032 L1931.46 122.004 L1931.46 121.976 L1931.46 121.948 L1931.46 121.92 L1931.46 121.892 L1931.46 121.864 L1931.46 121.836 L1931.46 121.808 L1931.46 121.78 L1931.46 121.752 L1931.46 121.724 L1931.46 121.696 L1931.46 121.668 L1931.46 121.64 L1931.46 121.612 L1931.46 121.584 L1931.46 121.556 L1931.46 121.528 L1931.46 121.5 L1931.46 121.472 L1931.47 121.444 L1931.47 121.416 L1931.49 121.388 L1931.51 121.36 L1931.54 121.332 L1931.6 121.304 L1931.69 121.276 L1931.83 121.248 L1932.04 121.22 L1932.35 121.192 L1932.79 121.165 L1933.41 121.137 L1934.25 121.109 L1935.39 121.081 L1936.86 121.053 L1938.73 121.025 L1941.05 120.997 L1943.84 120.969 L1947.1 120.941 L1950.82 120.913 L1954.91 120.885 L1959.27 120.857 L1963.76 120.829 L1968.18 120.802 L1972.33 120.774 L1976 120.746 L1978.99 120.718 L1981.11 120.69 L1982.25 120.662 L1880.67 120.662 L1881.8 120.69 L1883.93 120.718 L1886.91 120.746 L1890.58 120.774 L1894.74 120.802 L1899.16 120.829 L1903.64 120.857 L1908 120.885 L1912.1 120.913 L1915.81 120.941 L1919.07 120.969 L1921.86 120.997 L1924.18 121.025 L1926.05 121.053 L1927.53 121.081 L1928.66 121.109 L1929.51 121.137 L1930.13 121.165 L1930.57 121.192 L1930.87 121.22 L1931.08 121.248 L1931.22 121.276 L1931.31 121.304 L1931.37 121.332 L1931.41 121.36 L1931.43 121.388 L1931.44 121.416 L1931.45 121.444 L1931.45 121.472 L1931.45 121.5 L1931.46 121.528 L1931.46 121.556 L1931.46 121.584 L1931.46 121.612 L1931.46 121.64 L1931.46 121.668 L1931.46 121.696 L1931.46 121.724 L1931.46 121.752 L1931.46 121.78 L1931.46 121.808 L1931.46 121.836 L1931.46 121.864 L1931.46 121.892 L1931.46 121.92 L1931.46 121.948 L1931.46 121.976 L1931.46 122.004 L1931.46 122.032 L1931.46 122.06 L1931.46 122.088 L1931.46 122.116 L1931.46 122.144 L1931.46 122.172 L1931.46 122.2 L1931.46 122.228 L1931.46 122.256 L1931.46 122.284 L1931.46 122.312 L1931.46 122.34 L1931.46 122.368 L1931.46 122.396 L1931.46 122.424 L1931.46 122.452 L1931.45 122.48 L1931.45 122.509 L1931.45 122.537 L1931.45 122.565 L1931.44 122.593 L1931.42 122.621 L1931.4 122.649 L1931.36 122.677 L1931.3 122.705 L1931.2 122.733 L1931.04 122.761 L1930.82 122.789 L1930.48 122.817 L1930 122.845 L1929.33 122.874 L1928.42 122.902 L1927.21 122.93 L1925.64 122.958 L1923.65 122.986 L1921.2 123.014 L1918.24 123.042 L1914.79 123.07 L1910.84 123.098 L1906.46 123.126 L1901.73 123.155 L1896.77 123.183 L1891.7 123.211 L1886.66 123.239 L1881.77 123.267 L1877.13 123.295 L1872.79 123.323 L1868.75 123.351 L1864.94 123.38 L1861.25 123.408 L1857.52 123.436 L1853.57 123.464 L1849.2 123.492 L1844.26 123.52 L1838.62 123.548 L1832.2 123.577 L1824.99 123.605 L1817 123.633 L1808.31 123.661 L1798.96 123.689 L1789.02 123.717 L1778.51 123.746 L1767.41 123.774 L1755.68 123.802 L1743.25 123.83 L1730.05 123.858 L1716.05 123.887 L1701.26 123.915 L1685.78 123.943 L1669.82 123.971 L1653.67 123.999 L1637.71 124.027 L1622.41 124.056 L1608.24 124.084 L1595.69 124.112 L1585.23 124.14 L1577.24 124.168 L1572.04 124.197 L1569.83 124.225 L1570.72 124.253 L1574.71 124.281 L1581.71 124.31 L1591.53 124.338 L1603.89 124.366 L1618.47 124.394 L1634.9 124.422 L1652.76 124.451 L1671.63 124.479 L1691.09 124.507 L1710.75 124.535 L1730.26 124.564 L1749.32 124.592 L1767.69 124.62 L1785.19 124.648 L1801.7 124.677 L2061.21 124.677  Z" fill="#800080" fill-rule="evenodd" fill-opacity="0.5"></path>
<polyline clip-path="url(#clip052)" style="stroke:#000000; stroke-linecap:round; stroke-linejoin:round; stroke-width:4; stroke-opacity:1; fill:none" points="2061.21,124.677 2077.72,124.648 2095.22,124.62 2113.59,124.592 2132.65,124.564 2152.16,124.535 2171.82,124.507 2191.29,124.479 2210.15,124.451 2228.01,124.422 2244.44,124.394 2259.02,124.366 2271.39,124.338 2281.2,124.31 2288.2,124.281 2292.19,124.253 2293.09,124.225 2290.88,124.197 2285.67,124.168 2277.68,124.14 2267.22,124.112 2254.67,124.084 2240.5,124.056 2225.2,124.027 2209.25,123.999 2193.09,123.971 2177.13,123.943 2161.66,123.915 2146.87,123.887 2132.86,123.858 2119.66,123.83 2107.23,123.802 2095.5,123.774 2084.41,123.746 2073.89,123.717 2063.95,123.689 2054.61,123.661 2045.91,123.633 2037.93,123.605 2030.71,123.577 2024.3,123.548 2018.65,123.52 2013.71,123.492 2009.34,123.464 2005.39,123.436 2001.66,123.408 1997.97,123.38 1994.17,123.351 1990.12,123.323 1985.79,123.295 1981.15,123.267 1976.26,123.239 1971.22,123.211 1966.14,123.183 1961.18,123.155 1956.45,123.126 1952.07,123.098 1948.13,123.07 1944.67,123.042 1941.72,123.014 1939.26,122.986 1937.27,122.958 1935.7,122.93 1934.49,122.902 1933.58,122.874 1932.91,122.845 1932.43,122.817 1932.1,122.789 1931.87,122.761 1931.72,122.733 1931.62,122.705 1931.55,122.677 1931.51,122.649 1931.49,122.621 1931.48,122.593 1931.47,122.565 1931.46,122.537 1931.46,122.509 1931.46,122.48 1931.46,122.452 1931.46,122.424 1931.46,122.396 1931.46,122.368 1931.46,122.34 1931.46,122.312 1931.46,122.284 1931.46,122.256 1931.46,122.228 1931.46,122.2 1931.46,122.172 1931.46,122.144 1931.46,122.116 1931.46,122.088 1931.46,122.06 1931.46,122.032 1931.46,122.004 1931.46,121.976 1931.46,121.948 1931.46,121.92 1931.46,121.892 1931.46,121.864 1931.46,121.836 1931.46,121.808 1931.46,121.78 1931.46,121.752 1931.46,121.724 1931.46,121.696 1931.46,121.668 1931.46,121.64 1931.46,121.612 1931.46,121.584 1931.46,121.556 1931.46,121.528 1931.46,121.5 1931.46,121.472 1931.47,121.444 1931.47,121.416 1931.49,121.388 1931.51,121.36 1931.54,121.332 1931.6,121.304 1931.69,121.276 1931.83,121.248 1932.04,121.22 1932.35,121.192 1932.79,121.165 1933.41,121.137 1934.25,121.109 1935.39,121.081 1936.86,121.053 1938.73,121.025 1941.05,120.997 1943.84,120.969 1947.1,120.941 1950.82,120.913 1954.91,120.885 1959.27,120.857 1963.76,120.829 1968.18,120.802 1972.33,120.774 1976,120.746 1978.99,120.718 1981.11,120.69 1982.25,120.662 1880.67,120.662 1881.8,120.69 1883.93,120.718 1886.91,120.746 1890.58,120.774 1894.74,120.802 1899.16,120.829 1903.64,120.857 1908,120.885 1912.1,120.913 1915.81,120.941 1919.07,120.969 1921.86,120.997 1924.18,121.025 1926.05,121.053 1927.53,121.081 1928.66,121.109 1929.51,121.137 1930.13,121.165 1930.57,121.192 1930.87,121.22 1931.08,121.248 1931.22,121.276 1931.31,121.304 1931.37,121.332 1931.41,121.36 1931.43,121.388 1931.44,121.416 1931.45,121.444 1931.45,121.472 1931.45,121.5 1931.46,121.528 1931.46,121.556 1931.46,121.584 1931.46,121.612 1931.46,121.64 1931.46,121.668 1931.46,121.696 1931.46,121.724 1931.46,121.752 1931.46,121.78 1931.46,121.808 1931.46,121.836 1931.46,121.864 1931.46,121.892 1931.46,121.92 1931.46,121.948 1931.46,121.976 1931.46,122.004 1931.46,122.032 1931.46,122.06 1931.46,122.088 1931.46,122.116 1931.46,122.144 1931.46,122.172 1931.46,122.2 1931.46,122.228 1931.46,122.256 1931.46,122.284 1931.46,122.312 1931.46,122.34 1931.46,122.368 1931.46,122.396 1931.46,122.424 1931.46,122.452 1931.45,122.48 1931.45,122.509 1931.45,122.537 1931.45,122.565 1931.44,122.593 1931.42,122.621 1931.4,122.649 1931.36,122.677 1931.3,122.705 1931.2,122.733 1931.04,122.761 1930.82,122.789 1930.48,122.817 1930,122.845 1929.33,122.874 1928.42,122.902 1927.21,122.93 1925.64,122.958 1923.65,122.986 1921.2,123.014 1918.24,123.042 1914.79,123.07 1910.84,123.098 1906.46,123.126 1901.73,123.155 1896.77,123.183 1891.7,123.211 1886.66,123.239 1881.77,123.267 1877.13,123.295 1872.79,123.323 1868.75,123.351 1864.94,123.38 1861.25,123.408 1857.52,123.436 1853.57,123.464 1849.2,123.492 1844.26,123.52 1838.62,123.548 1832.2,123.577 1824.99,123.605 1817,123.633 1808.31,123.661 1798.96,123.689 1789.02,123.717 1778.51,123.746 1767.41,123.774 1755.68,123.802 1743.25,123.83 1730.05,123.858 1716.05,123.887 1701.26,123.915 1685.78,123.943 1669.82,123.971 1653.67,123.999 1637.71,124.027 1622.41,124.056 1608.24,124.084 1595.69,124.112 1585.23,124.14 1577.24,124.168 1572.04,124.197 1569.83,124.225 1570.72,124.253 1574.71,124.281 1581.71,124.31 1591.53,124.338 1603.89,124.366 1618.47,124.394 1634.9,124.422 1652.76,124.451 1671.63,124.479 1691.09,124.507 1710.75,124.535 1730.26,124.564 1749.32,124.592 1767.69,124.62 1785.19,124.648 1801.7,124.677 2061.21,124.677 "></polyline>
<path clip-path="url(#clip052)" d="M816.528 1382.36 L833.935 1381.59 L851.68 1380.81 L869.554 1380.04 L887.345 1379.27 L904.845 1378.5 L921.848 1377.73 L938.157 1376.97 L953.583 1376.21 L967.944 1375.44 L981.069 1374.69 L992.8 1373.93 L1002.99 1373.17 L1011.52 1372.42 L1018.28 1371.67 L1023.2 1370.92 L1026.24 1370.17 L1027.38 1369.42 L1026.66 1368.68 L1024.14 1367.93 L1019.9 1367.19 L1014.09 1366.45 L1006.82 1365.72 L998.268 1364.98 L988.59 1364.25 L977.952 1363.51 L966.523 1362.78 L954.464 1362.06 L941.934 1361.33 L929.087 1360.6 L916.071 1359.88 L903.029 1359.16 L890.096 1358.44 L877.398 1357.72 L865.051 1357 L853.152 1356.29 L841.784 1355.57 L831.007 1354.86 L820.862 1354.15 L811.371 1353.44 L802.536 1352.73 L794.35 1352.03 L786.797 1351.32 L779.858 1350.62 L773.516 1349.92 L767.76 1349.22 L762.588 1348.52 L758.004 1347.83 L754.018 1347.13 L750.641 1346.44 L747.884 1345.75 L745.748 1345.06 L744.222 1344.37 L743.279 1343.68 L742.871 1343 L742.933 1342.31 L743.378 1341.63 L744.105 1340.95 L745.002 1340.27 L745.95 1339.59 L746.83 1338.92 L747.532 1338.24 L747.958 1337.57 L748.027 1336.89 L747.68 1336.22 L746.883 1335.55 L745.625 1334.89 L743.92 1334.22 L741.802 1333.56 L739.323 1332.89 L736.546 1332.23 L733.544 1331.57 L730.394 1330.91 L727.17 1330.25 L723.943 1329.6 L720.776 1328.94 L717.726 1328.29 L714.837 1327.64 L712.146 1326.98 L709.68 1326.33 L707.458 1325.69 L705.491 1325.04 L703.786 1324.39 L702.34 1323.75 L701.148 1323.11 L700.196 1322.47 L699.469 1321.83 L698.945 1321.19 L698.598 1320.55 L698.401 1319.91 L698.326 1319.28 L698.344 1318.64 L698.427 1318.01 L698.553 1317.38 L698.7 1316.75 L698.852 1316.12 L698.998 1315.5 L699.13 1314.87 L699.242 1314.24 L699.332 1313.62 L699.397 1313 L699.433 1312.38 L699.438 1311.76 L699.405 1311.14 L699.325 1310.52 L699.19 1309.91 L698.986 1309.29 L698.703 1308.68 L698.326 1308.07 L697.846 1307.45 L697.252 1306.84 L696.539 1306.24 L695.705 1305.63 L694.753 1305.02 L693.693 1304.42 L692.541 1303.81 L691.317 1303.21 L690.05 1302.61 L688.773 1302.01 L687.521 1301.41 L686.333 1300.81 L685.246 1300.21 L684.295 1299.62 L683.509 1299.02 L682.906 1298.43 L682.498 1297.84 L682.282 1297.24 L682.244 1296.65 L682.356 1296.07 L682.582 1295.48 L682.874 1294.89 L683.181 1294.3 L683.452 1293.72 L683.634 1293.14 L683.683 1292.55 L683.564 1291.97 L647.936 1291.97 L647.818 1292.55 L647.867 1293.14 L648.049 1293.72 L648.319 1294.3 L648.627 1294.89 L648.919 1295.48 L649.144 1296.07 L649.256 1296.65 L649.218 1297.24 L649.002 1297.84 L648.594 1298.43 L647.992 1299.02 L647.205 1299.62 L646.254 1300.21 L645.167 1300.81 L643.979 1301.41 L642.728 1302.01 L641.45 1302.61 L640.183 1303.21 L638.96 1303.81 L637.807 1304.42 L636.747 1305.02 L635.796 1305.63 L634.962 1306.24 L634.249 1306.84 L633.655 1307.45 L633.174 1308.07 L632.798 1308.68 L632.514 1309.29 L632.311 1309.91 L632.175 1310.52 L632.096 1311.14 L632.063 1311.76 L632.067 1312.38 L632.104 1313 L632.169 1313.62 L632.258 1314.24 L632.371 1314.87 L632.502 1315.5 L632.648 1316.12 L632.801 1316.75 L632.948 1317.38 L633.073 1318.01 L633.157 1318.64 L633.174 1319.28 L633.099 1319.91 L632.903 1320.55 L632.556 1321.19 L632.031 1321.83 L631.304 1322.47 L630.353 1323.11 L629.16 1323.75 L627.715 1324.39 L626.009 1325.04 L624.043 1325.69 L621.821 1326.33 L619.355 1326.98 L616.663 1327.64 L613.775 1328.29 L610.724 1328.94 L607.558 1329.6 L604.331 1330.25 L601.107 1330.91 L597.956 1331.57 L594.955 1332.23 L592.178 1332.89 L589.698 1333.56 L587.58 1334.22 L585.875 1334.89 L584.618 1335.55 L583.821 1336.22 L583.474 1336.89 L583.543 1337.57 L583.968 1338.24 L584.671 1338.92 L585.551 1339.59 L586.499 1340.27 L587.395 1340.95 L588.123 1341.63 L588.568 1342.31 L588.629 1343 L588.222 1343.68 L587.278 1344.37 L585.752 1345.06 L583.616 1345.75 L580.859 1346.44 L577.483 1347.13 L573.497 1347.83 L568.912 1348.52 L563.74 1349.22 L557.985 1349.92 L551.643 1350.62 L544.703 1351.32 L537.15 1352.03 L528.964 1352.73 L520.13 1353.44 L510.638 1354.15 L500.493 1354.86 L489.716 1355.57 L478.348 1356.29 L466.45 1357 L454.102 1357.72 L441.405 1358.44 L428.472 1359.16 L415.43 1359.88 L402.414 1360.6 L389.566 1361.33 L377.037 1362.06 L364.978 1362.78 L353.548 1363.51 L342.911 1364.25 L333.232 1364.98 L324.679 1365.72 L317.415 1366.45 L311.597 1367.19 L307.365 1367.93 L304.842 1368.68 L304.12 1369.42 L305.263 1370.17 L308.298 1370.92 L313.218 1371.67 L319.98 1372.42 L328.508 1373.17 L338.7 1373.93 L350.431 1374.69 L363.557 1375.44 L377.918 1376.21 L393.343 1376.97 L409.653 1377.73 L426.656 1378.5 L444.156 1379.27 L461.947 1380.04 L479.821 1380.81 L497.565 1381.59 L514.972 1382.36 L816.528 1382.36  Z" fill="#cd0000" fill-rule="evenodd" fill-opacity="0.5"></path>
<polyline clip-path="url(#clip052)" style="stroke:#000000; stroke-linecap:round; stroke-linejoin:round; stroke-width:4; stroke-opacity:1; fill:none" points="816.528,1382.36 833.935,1381.59 851.68,1380.81 869.554,1380.04 887.345,1379.27 904.845,1378.5 921.848,1377.73 938.157,1376.97 953.583,1376.21 967.944,1375.44 981.069,1374.69 992.8,1373.93 1002.99,1373.17 1011.52,1372.42 1018.28,1371.67 1023.2,1370.92 1026.24,1370.17 1027.38,1369.42 1026.66,1368.68 1024.14,1367.93 1019.9,1367.19 1014.09,1366.45 1006.82,1365.72 998.268,1364.98 988.59,1364.25 977.952,1363.51 966.523,1362.78 954.464,1362.06 941.934,1361.33 929.087,1360.6 916.071,1359.88 903.029,1359.16 890.096,1358.44 877.398,1357.72 865.051,1357 853.152,1356.29 841.784,1355.57 831.007,1354.86 820.862,1354.15 811.371,1353.44 802.536,1352.73 794.35,1352.03 786.797,1351.32 779.858,1350.62 773.516,1349.92 767.76,1349.22 762.588,1348.52 758.004,1347.83 754.018,1347.13 750.641,1346.44 747.884,1345.75 745.748,1345.06 744.222,1344.37 743.279,1343.68 742.871,1343 742.933,1342.31 743.378,1341.63 744.105,1340.95 745.002,1340.27 745.95,1339.59 746.83,1338.92 747.532,1338.24 747.958,1337.57 748.027,1336.89 747.68,1336.22 746.883,1335.55 745.625,1334.89 743.92,1334.22 741.802,1333.56 739.323,1332.89 736.546,1332.23 733.544,1331.57 730.394,1330.91 727.17,1330.25 723.943,1329.6 720.776,1328.94 717.726,1328.29 714.837,1327.64 712.146,1326.98 709.68,1326.33 707.458,1325.69 705.491,1325.04 703.786,1324.39 702.34,1323.75 701.148,1323.11 700.196,1322.47 699.469,1321.83 698.945,1321.19 698.598,1320.55 698.401,1319.91 698.326,1319.28 698.344,1318.64 698.427,1318.01 698.553,1317.38 698.7,1316.75 698.852,1316.12 698.998,1315.5 699.13,1314.87 699.242,1314.24 699.332,1313.62 699.397,1313 699.433,1312.38 699.438,1311.76 699.405,1311.14 699.325,1310.52 699.19,1309.91 698.986,1309.29 698.703,1308.68 698.326,1308.07 697.846,1307.45 697.252,1306.84 696.539,1306.24 695.705,1305.63 694.753,1305.02 693.693,1304.42 692.541,1303.81 691.317,1303.21 690.05,1302.61 688.773,1302.01 687.521,1301.41 686.333,1300.81 685.246,1300.21 684.295,1299.62 683.509,1299.02 682.906,1298.43 682.498,1297.84 682.282,1297.24 682.244,1296.65 682.356,1296.07 682.582,1295.48 682.874,1294.89 683.181,1294.3 683.452,1293.72 683.634,1293.14 683.683,1292.55 683.564,1291.97 647.936,1291.97 647.818,1292.55 647.867,1293.14 648.049,1293.72 648.319,1294.3 648.627,1294.89 648.919,1295.48 649.144,1296.07 649.256,1296.65 649.218,1297.24 649.002,1297.84 648.594,1298.43 647.992,1299.02 647.205,1299.62 646.254,1300.21 645.167,1300.81 643.979,1301.41 642.728,1302.01 641.45,1302.61 640.183,1303.21 638.96,1303.81 637.807,1304.42 636.747,1305.02 635.796,1305.63 634.962,1306.24 634.249,1306.84 633.655,1307.45 633.174,1308.07 632.798,1308.68 632.514,1309.29 632.311,1309.91 632.175,1310.52 632.096,1311.14 632.063,1311.76 632.067,1312.38 632.104,1313 632.169,1313.62 632.258,1314.24 632.371,1314.87 632.502,1315.5 632.648,1316.12 632.801,1316.75 632.948,1317.38 633.073,1318.01 633.157,1318.64 633.174,1319.28 633.099,1319.91 632.903,1320.55 632.556,1321.19 632.031,1321.83 631.304,1322.47 630.353,1323.11 629.16,1323.75 627.715,1324.39 626.009,1325.04 624.043,1325.69 621.821,1326.33 619.355,1326.98 616.663,1327.64 613.775,1328.29 610.724,1328.94 607.558,1329.6 604.331,1330.25 601.107,1330.91 597.956,1331.57 594.955,1332.23 592.178,1332.89 589.698,1333.56 587.58,1334.22 585.875,1334.89 584.618,1335.55 583.821,1336.22 583.474,1336.89 583.543,1337.57 583.968,1338.24 584.671,1338.92 585.551,1339.59 586.499,1340.27 587.395,1340.95 588.123,1341.63 588.568,1342.31 588.629,1343 588.222,1343.68 587.278,1344.37 585.752,1345.06 583.616,1345.75 580.859,1346.44 577.483,1347.13 573.497,1347.83 568.912,1348.52 563.74,1349.22 557.985,1349.92 551.643,1350.62 544.703,1351.32 537.15,1352.03 528.964,1352.73 520.13,1353.44 510.638,1354.15 500.493,1354.86 489.716,1355.57 478.348,1356.29 466.45,1357 454.102,1357.72 441.405,1358.44 428.472,1359.16 415.43,1359.88 402.414,1360.6 389.566,1361.33 377.037,1362.06 364.978,1362.78 353.548,1363.51 342.911,1364.25 333.232,1364.98 324.679,1365.72 317.415,1366.45 311.597,1367.19 307.365,1367.93 304.842,1368.68 304.12,1369.42 305.263,1370.17 308.298,1370.92 313.218,1371.67 319.98,1372.42 328.508,1373.17 338.7,1373.93 350.431,1374.69 363.557,1375.44 377.918,1376.21 393.343,1376.97 409.653,1377.73 426.656,1378.5 444.156,1379.27 461.947,1380.04 479.821,1380.81 497.565,1381.59 514.972,1382.36 816.528,1382.36 "></polyline>
<path clip-path="url(#clip052)" d="M2273.76 95.792 L2280.35 95.6989 L2285.59 95.6058 L2289.45 95.5128 L2291.95 95.4198 L2293.09 95.3268 L2292.91 95.2338 L2291.49 95.1409 L2288.89 95.048 L2285.22 94.9551 L2280.6 94.8622 L2275.15 94.7694 L2269.01 94.6766 L2262.31 94.5839 L2255.2 94.4911 L2247.81 94.3984 L2240.29 94.3057 L2232.75 94.2131 L2225.33 94.1204 L2218.11 94.0278 L2211.21 93.9352 L2204.68 93.8427 L2198.59 93.7502 L2192.98 93.6577 L2187.87 93.5652 L2183.28 93.4728 L2179.19 93.3804 L2175.58 93.288 L2172.42 93.1956 L2169.67 93.1033 L2167.25 93.011 L2165.12 92.9187 L2163.19 92.8265 L2161.41 92.7343 L2159.68 92.6421 L2157.94 92.5499 L2156.12 92.4578 L2154.14 92.3657 L2151.94 92.2736 L2149.48 92.1815 L2146.69 92.0895 L2143.54 91.9975 L2140 91.9055 L2136.05 91.8136 L2131.67 91.7217 L2126.88 91.6298 L2121.68 91.5379 L2116.08 91.4461 L2110.12 91.3543 L2103.84 91.2625 L2097.27 91.1707 L2090.47 91.079 L2083.49 90.9873 L2076.4 90.8956 L2069.24 90.804 L2062.09 90.7124 L2055.01 90.6208 L2048.06 90.5292 L2041.29 90.4377 L2034.76 90.3462 L2028.53 90.2547 L2022.62 90.1632 L2017.09 90.0718 L2011.96 89.9804 L2007.26 89.889 L2003 89.7976 L1999.19 89.7063 L1995.84 89.615 L1992.93 89.5238 L1990.45 89.4325 L1988.39 89.3413 L1986.72 89.2501 L1985.4 89.159 L1984.4 89.0678 L1983.69 88.9767 L1983.21 88.8856 L1982.94 88.7946 L1982.82 88.7035 L1982.8 88.6125 L1982.86 88.5216 L1982.94 88.4306 L1983 88.3397 L1983.02 88.2488 L1982.96 88.1579 L1982.78 88.0671 L1982.48 87.9763 L1880.43 87.9763 L1880.13 88.0671 L1879.96 88.1579 L1879.89 88.2488 L1879.91 88.3397 L1879.98 88.4306 L1880.06 88.5216 L1880.11 88.6125 L1880.1 88.7035 L1879.97 88.7946 L1879.7 88.8856 L1879.23 88.9767 L1878.51 89.0678 L1877.51 89.159 L1876.2 89.2501 L1874.52 89.3413 L1872.46 89.4325 L1869.98 89.5238 L1867.07 89.615 L1863.72 89.7063 L1859.91 89.7976 L1855.65 89.889 L1850.95 89.9804 L1845.82 90.0718 L1840.29 90.1632 L1834.39 90.2547 L1828.15 90.3462 L1821.62 90.4377 L1814.85 90.5292 L1807.9 90.6208 L1800.82 90.7124 L1793.67 90.804 L1786.52 90.8956 L1779.42 90.9873 L1772.45 91.079 L1765.65 91.1707 L1759.08 91.2625 L1752.79 91.3543 L1746.83 91.4461 L1741.24 91.5379 L1736.03 91.6298 L1731.24 91.7217 L1726.87 91.8136 L1722.91 91.9055 L1719.37 91.9975 L1716.22 92.0895 L1713.44 92.1815 L1710.97 92.2736 L1708.77 92.3657 L1706.8 92.4578 L1704.97 92.5499 L1703.23 92.6421 L1701.51 92.7343 L1699.72 92.8265 L1697.79 92.9187 L1695.66 93.011 L1693.25 93.1033 L1690.49 93.1956 L1687.33 93.288 L1683.72 93.3804 L1679.64 93.4728 L1675.04 93.5652 L1669.94 93.6577 L1664.33 93.7502 L1658.23 93.8427 L1651.71 93.9352 L1644.8 94.0278 L1637.59 94.1204 L1630.16 94.2131 L1622.63 94.3057 L1615.1 94.3984 L1607.72 94.4911 L1600.6 94.5839 L1593.9 94.6766 L1587.76 94.7694 L1582.31 94.8622 L1577.69 94.9551 L1574.02 95.048 L1571.43 95.1409 L1570 95.2338 L1569.83 95.3268 L1570.96 95.4198 L1573.46 95.5128 L1577.33 95.6058 L1582.57 95.6989 L1589.15 95.792 L2273.76 95.792  Z" fill="#cd0000" fill-rule="evenodd" fill-opacity="0.5"></path>
<polyline clip-path="url(#clip052)" style="stroke:#000000; stroke-linecap:round; stroke-linejoin:round; stroke-width:4; stroke-opacity:1; fill:none" points="2273.76,95.792 2280.35,95.6989 2285.59,95.6058 2289.45,95.5128 2291.95,95.4198 2293.09,95.3268 2292.91,95.2338 2291.49,95.1409 2288.89,95.048 2285.22,94.9551 2280.6,94.8622 2275.15,94.7694 2269.01,94.6766 2262.31,94.5839 2255.2,94.4911 2247.81,94.3984 2240.29,94.3057 2232.75,94.2131 2225.33,94.1204 2218.11,94.0278 2211.21,93.9352 2204.68,93.8427 2198.59,93.7502 2192.98,93.6577 2187.87,93.5652 2183.28,93.4728 2179.19,93.3804 2175.58,93.288 2172.42,93.1956 2169.67,93.1033 2167.25,93.011 2165.12,92.9187 2163.19,92.8265 2161.41,92.7343 2159.68,92.6421 2157.94,92.5499 2156.12,92.4578 2154.14,92.3657 2151.94,92.2736 2149.48,92.1815 2146.69,92.0895 2143.54,91.9975 2140,91.9055 2136.05,91.8136 2131.67,91.7217 2126.88,91.6298 2121.68,91.5379 2116.08,91.4461 2110.12,91.3543 2103.84,91.2625 2097.27,91.1707 2090.47,91.079 2083.49,90.9873 2076.4,90.8956 2069.24,90.804 2062.09,90.7124 2055.01,90.6208 2048.06,90.5292 2041.29,90.4377 2034.76,90.3462 2028.53,90.2547 2022.62,90.1632 2017.09,90.0718 2011.96,89.9804 2007.26,89.889 2003,89.7976 1999.19,89.7063 1995.84,89.615 1992.93,89.5238 1990.45,89.4325 1988.39,89.3413 1986.72,89.2501 1985.4,89.159 1984.4,89.0678 1983.69,88.9767 1983.21,88.8856 1982.94,88.7946 1982.82,88.7035 1982.8,88.6125 1982.86,88.5216 1982.94,88.4306 1983,88.3397 1983.02,88.2488 1982.96,88.1579 1982.78,88.0671 1982.48,87.9763 1880.43,87.9763 1880.13,88.0671 1879.96,88.1579 1879.89,88.2488 1879.91,88.3397 1879.98,88.4306 1880.06,88.5216 1880.11,88.6125 1880.1,88.7035 1879.97,88.7946 1879.7,88.8856 1879.23,88.9767 1878.51,89.0678 1877.51,89.159 1876.2,89.2501 1874.52,89.3413 1872.46,89.4325 1869.98,89.5238 1867.07,89.615 1863.72,89.7063 1859.91,89.7976 1855.65,89.889 1850.95,89.9804 1845.82,90.0718 1840.29,90.1632 1834.39,90.2547 1828.15,90.3462 1821.62,90.4377 1814.85,90.5292 1807.9,90.6208 1800.82,90.7124 1793.67,90.804 1786.52,90.8956 1779.42,90.9873 1772.45,91.079 1765.65,91.1707 1759.08,91.2625 1752.79,91.3543 1746.83,91.4461 1741.24,91.5379 1736.03,91.6298 1731.24,91.7217 1726.87,91.8136 1722.91,91.9055 1719.37,91.9975 1716.22,92.0895 1713.44,92.1815 1710.97,92.2736 1708.77,92.3657 1706.8,92.4578 1704.97,92.5499 1703.23,92.6421 1701.51,92.7343 1699.72,92.8265 1697.79,92.9187 1695.66,93.011 1693.25,93.1033 1690.49,93.1956 1687.33,93.288 1683.72,93.3804 1679.64,93.4728 1675.04,93.5652 1669.94,93.6577 1664.33,93.7502 1658.23,93.8427 1651.71,93.9352 1644.8,94.0278 1637.59,94.1204 1630.16,94.2131 1622.63,94.3057 1615.1,94.3984 1607.72,94.4911 1600.6,94.5839 1593.9,94.6766 1587.76,94.7694 1582.31,94.8622 1577.69,94.9551 1574.02,95.048 1571.43,95.1409 1570,95.2338 1569.83,95.3268 1570.96,95.4198 1573.46,95.5128 1577.33,95.6058 1582.57,95.6989 1589.15,95.792 2273.76,95.792 "></polyline>
<path clip-path="url(#clip050)" d="M314.728 302.578 L695.65 302.578 L695.65 95.2176 L314.728 95.2176  Z" fill="#ffffff" fill-rule="evenodd" fill-opacity="1"></path>
<polyline clip-path="url(#clip050)" style="stroke:#000000; stroke-linecap:round; stroke-linejoin:round; stroke-width:4; stroke-opacity:1; fill:none" points="314.728,302.578 695.65,302.578 695.65,95.2176 314.728,95.2176 314.728,302.578 "></polyline>
<path clip-path="url(#clip050)" d="M338.153 167.794 L478.707 167.794 L478.707 126.322 L338.153 126.322 L338.153 167.794  Z" fill="#4169e1" fill-rule="evenodd" fill-opacity="0.5"></path>
<polyline clip-path="url(#clip050)" style="stroke:#000000; stroke-linecap:round; stroke-linejoin:round; stroke-width:4; stroke-opacity:1; fill:none" points="338.153,167.794 478.707,167.794 478.707,126.322 338.153,126.322 338.153,167.794 "></polyline>
<path clip-path="url(#clip050)" d="M502.133 129.778 L521.994 129.778 L521.994 133.713 L506.809 133.713 L506.809 143.898 L520.512 143.898 L520.512 147.833 L506.809 147.833 L506.809 164.338 L502.133 164.338 L502.133 129.778 Z" fill="#000000" fill-rule="nonzero" fill-opacity="1"></path><path clip-path="url(#clip050)" d="M529.216 128.319 L533.475 128.319 L533.475 164.338 L529.216 164.338 L529.216 128.319 Z" fill="#000000" fill-rule="nonzero" fill-opacity="1"></path><path clip-path="url(#clip050)" d="M552.433 141.398 Q549.007 141.398 547.017 144.083 Q545.026 146.745 545.026 151.398 Q545.026 156.051 546.994 158.736 Q548.984 161.398 552.433 161.398 Q555.836 161.398 557.827 158.713 Q559.818 156.027 559.818 151.398 Q559.818 146.791 557.827 144.106 Q555.836 141.398 552.433 141.398 M552.433 137.787 Q557.989 137.787 561.16 141.398 Q564.331 145.009 564.331 151.398 Q564.331 157.764 561.16 161.398 Q557.989 165.009 552.433 165.009 Q546.855 165.009 543.683 161.398 Q540.535 157.764 540.535 151.398 Q540.535 145.009 543.683 141.398 Q546.855 137.787 552.433 137.787 Z" fill="#000000" fill-rule="nonzero" fill-opacity="1"></path><path clip-path="url(#clip050)" d="M583.174 151.305 Q578.012 151.305 576.021 152.486 Q574.03 153.666 574.03 156.514 Q574.03 158.782 575.512 160.125 Q577.016 161.444 579.586 161.444 Q583.128 161.444 585.257 158.944 Q587.41 156.421 587.41 152.254 L587.41 151.305 L583.174 151.305 M591.669 149.546 L591.669 164.338 L587.41 164.338 L587.41 160.402 Q585.952 162.763 583.776 163.898 Q581.6 165.009 578.452 165.009 Q574.47 165.009 572.109 162.787 Q569.771 160.541 569.771 156.791 Q569.771 152.416 572.688 150.194 Q575.628 147.972 581.438 147.972 L587.41 147.972 L587.41 147.555 Q587.41 144.615 585.466 143.018 Q583.544 141.398 580.049 141.398 Q577.827 141.398 575.72 141.93 Q573.614 142.463 571.669 143.527 L571.669 139.592 Q574.007 138.69 576.206 138.25 Q578.405 137.787 580.489 137.787 Q586.114 137.787 588.891 140.703 Q591.669 143.62 591.669 149.546 Z" fill="#000000" fill-rule="nonzero" fill-opacity="1"></path><path clip-path="url(#clip050)" d="M604.655 131.051 L604.655 138.412 L613.428 138.412 L613.428 141.722 L604.655 141.722 L604.655 155.796 Q604.655 158.967 605.512 159.87 Q606.391 160.773 609.053 160.773 L613.428 160.773 L613.428 164.338 L609.053 164.338 Q604.123 164.338 602.248 162.509 Q600.373 160.657 600.373 155.796 L600.373 141.722 L597.248 141.722 L597.248 138.412 L600.373 138.412 L600.373 131.051 L604.655 131.051 Z" fill="#000000" fill-rule="nonzero" fill-opacity="1"></path><path clip-path="url(#clip050)" d="M633.799 145.703 Q637.155 146.421 639.03 148.689 Q640.928 150.958 640.928 154.291 Q640.928 159.407 637.41 162.208 Q633.891 165.009 627.41 165.009 Q625.234 165.009 622.919 164.569 Q620.627 164.152 618.174 163.296 L618.174 158.782 Q620.118 159.916 622.433 160.495 Q624.748 161.074 627.271 161.074 Q631.669 161.074 633.961 159.338 Q636.275 157.601 636.275 154.291 Q636.275 151.236 634.123 149.523 Q631.993 147.787 628.174 147.787 L624.146 147.787 L624.146 143.944 L628.359 143.944 Q631.808 143.944 633.637 142.578 Q635.465 141.19 635.465 138.597 Q635.465 135.935 633.567 134.523 Q631.692 133.088 628.174 133.088 Q626.252 133.088 624.053 133.504 Q621.854 133.921 619.215 134.801 L619.215 130.634 Q621.877 129.893 624.192 129.523 Q626.53 129.153 628.59 129.153 Q633.914 129.153 637.016 131.583 Q640.118 133.99 640.118 138.111 Q640.118 140.981 638.474 142.972 Q636.831 144.94 633.799 145.703 Z" fill="#000000" fill-rule="nonzero" fill-opacity="1"></path><path clip-path="url(#clip050)" d="M653.822 160.402 L670.141 160.402 L670.141 164.338 L648.197 164.338 L648.197 160.402 Q650.859 157.648 655.442 153.018 Q660.048 148.365 661.229 147.023 Q663.474 144.5 664.354 142.764 Q665.257 141.004 665.257 139.315 Q665.257 136.56 663.312 134.824 Q661.391 133.088 658.289 133.088 Q656.09 133.088 653.636 133.852 Q651.206 134.615 648.428 136.166 L648.428 131.444 Q651.252 130.31 653.706 129.731 Q656.16 129.153 658.197 129.153 Q663.567 129.153 666.761 131.838 Q669.956 134.523 669.956 139.014 Q669.956 141.143 669.146 143.065 Q668.359 144.963 666.252 147.555 Q665.673 148.227 662.572 151.444 Q659.47 154.639 653.822 160.402 Z" fill="#000000" fill-rule="nonzero" fill-opacity="1"></path><path clip-path="url(#clip050)" d="M338.153 219.634 L478.707 219.634 L478.707 178.162 L338.153 178.162 L338.153 219.634  Z" fill="#800080" fill-rule="evenodd" fill-opacity="0.5"></path>
<polyline clip-path="url(#clip050)" style="stroke:#000000; stroke-linecap:round; stroke-linejoin:round; stroke-width:4; stroke-opacity:1; fill:none" points="338.153,219.634 478.707,219.634 478.707,178.162 338.153,178.162 338.153,219.634 "></polyline>
<path clip-path="url(#clip050)" d="M502.133 181.618 L521.994 181.618 L521.994 185.553 L506.809 185.553 L506.809 195.738 L520.512 195.738 L520.512 199.673 L506.809 199.673 L506.809 216.178 L502.133 216.178 L502.133 181.618 Z" fill="#000000" fill-rule="nonzero" fill-opacity="1"></path><path clip-path="url(#clip050)" d="M529.216 180.159 L533.475 180.159 L533.475 216.178 L529.216 216.178 L529.216 180.159 Z" fill="#000000" fill-rule="nonzero" fill-opacity="1"></path><path clip-path="url(#clip050)" d="M552.433 193.238 Q549.007 193.238 547.017 195.923 Q545.026 198.585 545.026 203.238 Q545.026 207.891 546.994 210.576 Q548.984 213.238 552.433 213.238 Q555.836 213.238 557.827 210.553 Q559.818 207.867 559.818 203.238 Q559.818 198.631 557.827 195.946 Q555.836 193.238 552.433 193.238 M552.433 189.627 Q557.989 189.627 561.16 193.238 Q564.331 196.849 564.331 203.238 Q564.331 209.604 561.16 213.238 Q557.989 216.849 552.433 216.849 Q546.855 216.849 543.683 213.238 Q540.535 209.604 540.535 203.238 Q540.535 196.849 543.683 193.238 Q546.855 189.627 552.433 189.627 Z" fill="#000000" fill-rule="nonzero" fill-opacity="1"></path><path clip-path="url(#clip050)" d="M583.174 203.145 Q578.012 203.145 576.021 204.326 Q574.03 205.506 574.03 208.354 Q574.03 210.622 575.512 211.965 Q577.016 213.284 579.586 213.284 Q583.128 213.284 585.257 210.784 Q587.41 208.261 587.41 204.094 L587.41 203.145 L583.174 203.145 M591.669 201.386 L591.669 216.178 L587.41 216.178 L587.41 212.242 Q585.952 214.603 583.776 215.738 Q581.6 216.849 578.452 216.849 Q574.47 216.849 572.109 214.627 Q569.771 212.381 569.771 208.631 Q569.771 204.256 572.688 202.034 Q575.628 199.812 581.438 199.812 L587.41 199.812 L587.41 199.395 Q587.41 196.455 585.466 194.858 Q583.544 193.238 580.049 193.238 Q577.827 193.238 575.72 193.77 Q573.614 194.303 571.669 195.367 L571.669 191.432 Q574.007 190.53 576.206 190.09 Q578.405 189.627 580.489 189.627 Q586.114 189.627 588.891 192.543 Q591.669 195.46 591.669 201.386 Z" fill="#000000" fill-rule="nonzero" fill-opacity="1"></path><path clip-path="url(#clip050)" d="M604.655 182.891 L604.655 190.252 L613.428 190.252 L613.428 193.562 L604.655 193.562 L604.655 207.636 Q604.655 210.807 605.512 211.71 Q606.391 212.613 609.053 212.613 L613.428 212.613 L613.428 216.178 L609.053 216.178 Q604.123 216.178 602.248 214.349 Q600.373 212.497 600.373 207.636 L600.373 193.562 L597.248 193.562 L597.248 190.252 L600.373 190.252 L600.373 182.891 L604.655 182.891 Z" fill="#000000" fill-rule="nonzero" fill-opacity="1"></path><path clip-path="url(#clip050)" d="M630.211 197.034 Q627.063 197.034 625.211 199.187 Q623.382 201.34 623.382 205.09 Q623.382 208.816 625.211 210.992 Q627.063 213.145 630.211 213.145 Q633.359 213.145 635.187 210.992 Q637.039 208.816 637.039 205.09 Q637.039 201.34 635.187 199.187 Q633.359 197.034 630.211 197.034 M639.493 182.381 L639.493 186.641 Q637.734 185.807 635.928 185.368 Q634.146 184.928 632.387 184.928 Q627.757 184.928 625.303 188.053 Q622.873 191.178 622.526 197.497 Q623.891 195.483 625.951 194.418 Q628.012 193.33 630.488 193.33 Q635.697 193.33 638.706 196.502 Q641.738 199.65 641.738 205.09 Q641.738 210.414 638.59 213.631 Q635.442 216.849 630.211 216.849 Q624.215 216.849 621.044 212.266 Q617.873 207.659 617.873 198.932 Q617.873 190.738 621.762 185.877 Q625.65 180.993 632.201 180.993 Q633.961 180.993 635.743 181.34 Q637.549 181.687 639.493 182.381 Z" fill="#000000" fill-rule="nonzero" fill-opacity="1"></path><path clip-path="url(#clip050)" d="M662.641 185.692 L650.836 204.141 L662.641 204.141 L662.641 185.692 M661.414 181.618 L667.294 181.618 L667.294 204.141 L672.224 204.141 L672.224 208.029 L667.294 208.029 L667.294 216.178 L662.641 216.178 L662.641 208.029 L647.039 208.029 L647.039 203.516 L661.414 181.618 Z" fill="#000000" fill-rule="nonzero" fill-opacity="1"></path><path clip-path="url(#clip050)" d="M338.153 271.474 L478.707 271.474 L478.707 230.002 L338.153 230.002 L338.153 271.474  Z" fill="#cd0000" fill-rule="evenodd" fill-opacity="0.5"></path>
<polyline clip-path="url(#clip050)" style="stroke:#000000; stroke-linecap:round; stroke-linejoin:round; stroke-width:4; stroke-opacity:1; fill:none" points="338.153,271.474 478.707,271.474 478.707,230.002 338.153,230.002 338.153,271.474 "></polyline>
<path clip-path="url(#clip050)" d="M502.133 233.458 L506.809 233.458 L506.809 268.018 L502.133 268.018 L502.133 233.458 Z" fill="#000000" fill-rule="nonzero" fill-opacity="1"></path><path clip-path="url(#clip050)" d="M537.48 252.369 L537.48 268.018 L533.22 268.018 L533.22 252.508 Q533.22 248.828 531.785 246.999 Q530.35 245.17 527.48 245.17 Q524.031 245.17 522.04 247.37 Q520.049 249.569 520.049 253.365 L520.049 268.018 L515.767 268.018 L515.767 242.092 L520.049 242.092 L520.049 246.12 Q521.577 243.782 523.637 242.624 Q525.72 241.467 528.429 241.467 Q532.896 241.467 535.188 244.245 Q537.48 246.999 537.48 252.369 Z" fill="#000000" fill-rule="nonzero" fill-opacity="1"></path><path clip-path="url(#clip050)" d="M550.188 234.731 L550.188 242.092 L558.961 242.092 L558.961 245.402 L550.188 245.402 L550.188 259.476 Q550.188 262.647 551.044 263.55 Q551.924 264.453 554.586 264.453 L558.961 264.453 L558.961 268.018 L554.586 268.018 Q549.656 268.018 547.781 266.189 Q545.906 264.337 545.906 259.476 L545.906 245.402 L542.781 245.402 L542.781 242.092 L545.906 242.092 L545.906 234.731 L550.188 234.731 Z" fill="#000000" fill-rule="nonzero" fill-opacity="1"></path><path clip-path="url(#clip050)" d="M586.739 253.99 L586.739 256.073 L567.155 256.073 Q567.433 260.471 569.794 262.786 Q572.179 265.078 576.415 265.078 Q578.868 265.078 581.16 264.476 Q583.475 263.874 585.743 262.67 L585.743 266.698 Q583.452 267.67 581.044 268.18 Q578.637 268.689 576.16 268.689 Q569.956 268.689 566.322 265.078 Q562.711 261.467 562.711 255.309 Q562.711 248.944 566.137 245.217 Q569.586 241.467 575.419 241.467 Q580.651 241.467 583.683 244.846 Q586.739 248.203 586.739 253.99 M582.479 252.74 Q582.433 249.245 580.512 247.161 Q578.614 245.078 575.466 245.078 Q571.901 245.078 569.748 247.092 Q567.618 249.106 567.294 252.763 L582.479 252.74 Z" fill="#000000" fill-rule="nonzero" fill-opacity="1"></path><path clip-path="url(#clip050)" d="M610.789 254.754 Q610.789 250.124 608.868 247.578 Q606.97 245.032 603.521 245.032 Q600.095 245.032 598.174 247.578 Q596.276 250.124 596.276 254.754 Q596.276 259.36 598.174 261.906 Q600.095 264.453 603.521 264.453 Q606.97 264.453 608.868 261.906 Q610.789 259.36 610.789 254.754 M615.049 264.8 Q615.049 271.42 612.109 274.638 Q609.169 277.879 603.104 277.879 Q600.859 277.879 598.868 277.531 Q596.877 277.207 595.003 276.513 L595.003 272.369 Q596.877 273.388 598.706 273.874 Q600.535 274.36 602.433 274.36 Q606.623 274.36 608.706 272.161 Q610.789 269.985 610.789 265.564 L610.789 263.457 Q609.47 265.749 607.41 266.883 Q605.35 268.018 602.479 268.018 Q597.711 268.018 594.794 264.383 Q591.878 260.749 591.878 254.754 Q591.878 248.735 594.794 245.101 Q597.711 241.467 602.479 241.467 Q605.35 241.467 607.41 242.601 Q609.47 243.735 610.789 246.027 L610.789 242.092 L615.049 242.092 L615.049 264.8 Z" fill="#000000" fill-rule="nonzero" fill-opacity="1"></path><path clip-path="url(#clip050)" d="M645.998 253.99 L645.998 256.073 L626.414 256.073 Q626.692 260.471 629.053 262.786 Q631.437 265.078 635.674 265.078 Q638.127 265.078 640.419 264.476 Q642.734 263.874 645.002 262.67 L645.002 266.698 Q642.711 267.67 640.303 268.18 Q637.896 268.689 635.419 268.689 Q629.215 268.689 625.581 265.078 Q621.97 261.467 621.97 255.309 Q621.97 248.944 625.396 245.217 Q628.845 241.467 634.678 241.467 Q639.91 241.467 642.942 244.846 Q645.998 248.203 645.998 253.99 M641.738 252.74 Q641.692 249.245 639.771 247.161 Q637.873 245.078 634.725 245.078 Q631.16 245.078 629.007 247.092 Q626.877 249.106 626.553 252.763 L641.738 252.74 Z" fill="#000000" fill-rule="nonzero" fill-opacity="1"></path><path clip-path="url(#clip050)" d="M668.011 246.073 Q667.294 245.657 666.437 245.471 Q665.604 245.263 664.585 245.263 Q660.974 245.263 659.03 247.624 Q657.109 249.962 657.109 254.36 L657.109 268.018 L652.826 268.018 L652.826 242.092 L657.109 242.092 L657.109 246.12 Q658.451 243.758 660.604 242.624 Q662.757 241.467 665.835 241.467 Q666.275 241.467 666.808 241.536 Q667.34 241.583 667.988 241.698 L668.011 246.073 Z" fill="#000000" fill-rule="nonzero" fill-opacity="1"></path></svg>